<?xml version="1.0" encoding="UTF-8" standalone="no"?><!DOCTYPE svg PUBLIC "-//W3C//DTD SVG 1.1//EN" "http://www.w3.org/Graphics/SVG/1.1/DTD/svg11.dtd"><svg width="100%" height="100%" viewBox="0 0 251 251" version="1.1" xmlns="http://www.w3.org/2000/svg" xmlns:xlink="http://www.w3.org/1999/xlink" xml:space="preserve" xmlns:serif="http://www.serif.com/" style="fill-rule:evenodd;clip-rule:evenodd;stroke-linejoin:round;stroke-miterlimit:2;"><rect id="emblem-black" x="0.25" y="0.73" width="250" height="250" style="fill:none;"/><clipPath id="_clip1"><rect x="0.25" y="0.73" width="250" height="250"/></clipPath><g clip-path="url(#_clip1)"><path d="M222.006,111.479c-2.361,-3.609 -5.193,-6.645 -8.423,-9.097c-1.675,-1.272 -3.452,-2.57 -5.339,-3.516c-5.195,-2.606 -11.163,-4.136 -17.748,-4.136l-8.06,-0c-5.916,-0 -11.186,-1.331 -14.186,-4.369l-0,0.086c1,-1.525 1.934,-2.88 3.239,-4.12c0.016,-0.015 -0.065,-0.009 -0.049,-0.024c0.962,-0.908 1.957,-1.718 3.069,-2.443c0.052,-0.034 0.081,-0.062 0.134,-0.096c0.322,-0.206 0.638,-0.401 0.971,-0.59c0.05,-0.029 0.093,-0.057 0.143,-0.085c0.754,-0.421 1.534,-0.797 2.34,-1.129c0.083,-0.034 0.165,-0.065 0.249,-0.098c0.314,-0.125 0.63,-0.243 0.951,-0.353c0.108,-0.037 0.216,-0.074 0.324,-0.11c0.337,-0.11 0.676,-0.211 1.02,-0.305c0.073,-0.02 0.146,-0.043 0.22,-0.063c0.416,-0.109 0.836,-0.206 1.261,-0.291c0.089,-0.018 0.179,-0.031 0.267,-0.048c0.335,-0.062 0.671,-0.118 1.01,-0.165c0.138,-0.019 0.277,-0.036 0.415,-0.053c0.31,-0.037 0.621,-0.067 0.935,-0.091c0.132,-0.01 0.263,-0.023 0.395,-0.03c0.439,-0.026 0.879,-0.043 1.324,-0.043c6.087,-0 11.598,2.467 15.587,6.456l10.353,-10.354c-6.639,-6.638 -15.81,-10.745 -25.94,-10.745c-0.65,-0 -1.296,0.018 -1.938,0.052c-0.205,0.011 -0.407,0.032 -0.611,0.046c-0.436,0.03 -0.872,0.06 -1.303,0.105c-0.234,0.024 -0.466,0.06 -0.699,0.088c-0.397,0.05 -0.795,0.097 -1.188,0.159c-0.24,0.038 -0.477,0.086 -0.715,0.128c-0.383,0.068 -0.766,0.135 -1.145,0.215c-0.235,0.05 -0.467,0.108 -0.701,0.162c-0.377,0.087 -0.755,0.175 -1.128,0.274c-0.226,0.06 -0.449,0.127 -0.673,0.191c-0.376,0.108 -0.752,0.217 -1.123,0.336c-0.214,0.069 -0.426,0.144 -0.638,0.216c-0.377,0.129 -0.753,0.261 -1.124,0.401c-0.199,0.076 -0.396,0.156 -0.594,0.234c-0.38,0.152 -0.758,0.308 -1.131,0.471c-0.183,0.08 -0.364,0.164 -0.545,0.247c-0.383,0.175 -0.764,0.356 -1.14,0.544c-0.165,0.083 -0.33,0.168 -0.494,0.254c-0.387,0.201 -0.77,0.408 -1.148,0.623c-0.148,0.083 -0.294,0.167 -0.44,0.252c-0.391,0.229 -0.777,0.465 -1.159,0.707c-0.128,0.081 -0.255,0.163 -0.382,0.245c-0.395,0.258 -0.785,0.524 -1.169,0.797c-0.108,0.076 -0.216,0.152 -0.323,0.229c-0.401,0.292 -0.795,0.591 -1.184,0.898c-0.084,0.067 -0.169,0.132 -0.253,0.199c-0.408,0.328 -0.809,0.666 -1.203,1.011c-0.06,0.053 -0.121,0.104 -0.181,0.157c-0.418,0.371 -0.827,0.752 -1.227,1.141c-0.033,0.032 -0.066,0.062 -0.099,0.094c-0.432,0.423 -0.854,0.856 -1.265,1.3c-0.997,1.077 -1.928,2.216 -2.791,3.406c-0.055,0.076 -0.108,0.152 -0.162,0.227c-0.369,0.517 -0.725,1.045 -1.067,1.581c-0.055,0.086 -0.111,0.171 -0.165,0.257c-0.767,1.225 -1.465,2.498 -2.087,3.814c-0.041,0.088 -0.079,0.177 -0.119,0.265c-0.256,0.554 -0.498,1.115 -0.726,1.683c-0.061,0.153 -0.122,0.305 -0.181,0.459c-0.214,0.554 -0.415,1.115 -0.603,1.682c-0.039,0.117 -0.081,0.234 -0.119,0.352c-0.224,0.7 -0.431,1.409 -0.613,2.127c0.002,0.003 0.005,-0.167 0.007,-0.163c-0.148,0.583 -0.273,1.597 -0.394,1.597l-23.275,-0l-0,15l20.925,-0c-3.019,9 -11.185,14.716 -20.792,14.716c-12.056,-0 -21.846,-9.539 -22.034,-21.551c0.001,-0.103 0.008,-0.165 0.008,-0.165l-0.016,-0c-0,-0 -0.001,-0.174 -0.001,-0.189c-0,-12.174 9.869,-22.115 22.043,-22.115c6.099,-0 11.618,2.441 15.609,6.443l10.353,-10.372c-6.64,-6.652 -15.82,-10.949 -25.962,-10.949c-17.753,-0 -32.56,13.182 -35.953,29.182l-23.18,-0l-0,15l21.214,-0c-3.019,9 -11.184,14.716 -20.791,14.716c-12.174,-0 -22.043,-9.872 -22.043,-22.046c-0,-12.174 9.869,-22.045 22.043,-22.045c6.098,-0 11.618,2.476 15.609,6.478l10.353,-10.354c-6.64,-6.651 -15.82,-10.767 -25.962,-10.767c-20.261,-0 -36.685,16.424 -36.685,36.685c-0,20.26 16.424,36.685 36.685,36.685c12.006,-0 22.663,-5.768 29.355,-14.682c6.693,8.914 17.35,14.682 29.355,14.682c12.13,-0 22.881,-5.891 29.56,-14.964c3.095,-4.205 5.305,-9.096 6.378,-14.4c0.289,-1.429 0.282,-2.886 0.401,-4.37c0.25,0.133 0.528,0.279 0.528,0.406l-0,0.007c6,2.606 11.6,3.969 18.186,3.969l8.06,-0c5.898,-0 10.712,1.491 14.534,4.51c0.012,0.009 0.025,0.014 0.036,0.023c-3.912,6.144 -10.779,10.223 -18.603,10.223c-6.087,-0 -11.597,-2.469 -15.586,-6.458l-10.307,10.306l-0.047,0.047c6.639,6.639 15.81,10.745 25.94,10.745c10.643,-0 20.223,-4.536 26.924,-11.776c4.087,-4.416 7.104,-9.836 8.632,-15.852c-0.004,-0.007 -0.009,-0.013 -0.013,-0.019m-65.141,45.251l-9.028,-0l-6.829,9.395l-6.737,-9.395l-9.212,-0l11.366,16.069l-11.366,15.931l9.029,-0l6.829,-9.441l6.782,9.441l9.166,-0l-11.32,-16.069l11.32,-15.931Zm-46.376,32.141c7.792,-0 12.604,-3.941 12.604,-10.266c-0,-5.911 -4.538,-7.928 -11.595,-9.441c-4.675,-1.008 -6.188,-1.649 -6.188,-3.574c-0,-1.559 1.421,-2.75 3.942,-2.75c2.933,-0 6.096,1.146 8.983,3.345l3.987,-5.591c-3.346,-2.795 -7.471,-4.308 -12.741,-4.308c-7.196,-0 -12.053,4.033 -12.053,10.083c-0,6.325 4.995,8.158 11.732,9.67c4.583,1.1 6.05,1.512 6.05,3.391c-0,1.696 -1.512,2.888 -4.446,2.888c-3.85,-0 -7.287,-1.467 -10.357,-3.988l-4.4,5.271c3.804,3.437 8.891,5.27 14.482,5.27m-21.996,-0c2.521,-0 4.629,-2.154 4.629,-4.812c-0,-2.475 -2.108,-4.629 -4.629,-4.629c-2.75,-0 -4.858,2.154 -4.858,4.629c-0,2.658 2.108,4.812 4.858,4.812m161.757,-64.141l-0.013,-0c0.003,-0 0.013,0.647 0.013,1l-0,62.5c-0,34.518 -27.982,62.5 -62.5,62.5l-187.5,-0l-0,-187.5c-0,-34.518 27.983,-62.5 62.5,-62.5l187.5,-0l-0,124Z" style="fill-rule:nonzero;"/></g></svg>