<?xml version="1.0" encoding="UTF-8" standalone="no"?><!DOCTYPE svg PUBLIC "-//W3C//DTD SVG 1.1//EN" "http://www.w3.org/Graphics/SVG/1.1/DTD/svg11.dtd"><svg width="100%" height="100%" viewBox="0 0 913 220" version="1.1" xmlns="http://www.w3.org/2000/svg" xmlns:xlink="http://www.w3.org/1999/xlink" xml:space="preserve" xmlns:serif="http://www.serif.com/" style="fill-rule:evenodd;clip-rule:evenodd;stroke-linejoin:round;stroke-miterlimit:2;"><rect id="logo" x="0" y="0.48" width="913" height="219.44" style="fill:none;"/><clipPath id="_clip1"><rect x="0" y="0.48" width="913" height="219.44"/></clipPath><g clip-path="url(#_clip1)"><path d="M913,0.479l-260,0c-21.91,0 -40.811,12.857 -49.591,31.434c-3.44,7.131 -5.375,15.124 -5.404,23.566l-0.005,0l0,164.44l260.25,0c30.238,0 54.75,-24.512 54.75,-54.75c0,-0.087 -0.006,-0.172 -0.007,-0.259c0.001,-0.087 0.007,-0.173 0.007,-0.26l0,-164.171Z" style="fill-rule:nonzero;"/><path d="M650.154,140.231c0,-7.193 6.126,-13.452 14.116,-13.452c7.326,-0 13.452,6.259 13.452,13.452c0,7.724 -6.126,13.983 -13.452,13.983c-7.99,-0 -14.116,-6.259 -14.116,-13.983" style="fill:#fff;fill-rule:nonzero;"/><path d="M686.106,138.899l12.785,-15.316c8.924,7.325 18.911,11.586 30.099,11.586c8.523,-0 12.918,-3.461 12.918,-8.39c-0,-5.46 -4.261,-6.659 -17.58,-9.854c-19.578,-4.395 -34.094,-9.722 -34.094,-28.101c-0,-17.58 14.117,-29.3 35.027,-29.3c15.314,-0 27.302,4.395 37.023,12.519l-11.585,16.247c-8.391,-6.392 -17.581,-9.721 -26.104,-9.721c-7.326,-0 -11.454,3.462 -11.454,7.991c-0,5.593 4.395,7.458 17.98,10.387c20.508,4.395 33.694,10.256 33.694,27.435c-0,18.379 -13.983,29.832 -36.625,29.832c-16.247,-0 -31.03,-5.326 -42.084,-15.315" style="fill:#fff;fill-rule:nonzero;"/><path d="M830.736,106.714l33.845,47.206l-27.405,0l-20.277,-28.226l-20.417,28.226l-26.993,0l33.982,-46.795l-33.982,-47.205l27.542,0l20.142,28.088l20.414,-28.088l26.994,0l-33.845,46.794Z" style="fill:#fff;fill-rule:nonzero;"/><path d="M406.39,75.471c11.449,9.085 25.884,13.449 43.578,13.449l24.107,0c19.697,0 37.546,4.193 53.084,11.987c5.644,2.832 10.957,6.332 15.968,10.136c9.661,7.335 18.128,16.414 25.191,27.208c0.013,0.019 0.027,0.037 0.039,0.056c-4.57,17.995 -13.593,34.205 -25.818,47.412c-20.042,21.652 -48.694,35.22 -80.524,35.22c-30.299,0 -57.729,-12.281 -77.584,-32.137l0.142,-0.143l30.824,-30.826c11.93,11.931 28.412,19.306 46.618,19.306c23.4,0 43.938,-12.21 55.638,-30.587c-0.035,-0.028 -0.073,-0.066 -0.107,-0.093c-11.433,-9.031 -25.831,-13.539 -43.471,-13.539l-24.107,0c-19.697,0 -37.545,-4.026 -53.083,-11.82l-0,0.03c-0.76,-0.381 -1.486,-0.818 -2.235,-1.217c-0.354,4.439 -0.986,8.797 -1.851,13.07c-3.209,15.865 -9.82,30.493 -19.077,43.07c-19.975,27.136 -52.128,44.754 -88.407,44.754c-35.907,0 -67.781,-17.25 -87.798,-43.913c-20.015,26.663 -51.89,43.913 -87.796,43.913c-60.597,0 -109.721,-49.123 -109.721,-109.72c-0,-60.597 49.124,-109.721 109.721,-109.721c30.332,0 57.788,12.309 77.648,32.203l-30.966,30.964c-11.935,-11.969 -28.443,-19.381 -46.682,-19.381c-36.411,0 -65.928,29.508 -65.928,65.919c-0,36.411 29.517,65.912 65.928,65.912c28.732,0 53.154,-18.063 62.184,-44.063l-61.905,0l-0,-44l67.785,0c10.148,-50 54.431,-87.698 107.53,-87.698c30.332,0 57.787,12.436 77.648,32.33l-30.966,30.948c-11.936,-11.97 -28.443,-19.416 -46.682,-19.416c-36.412,0 -65.928,29.442 -65.928,65.853c-0,0.045 0.003,-0.017 0.003,-0.017l0.048,0c-0.001,1 -0.022,0.743 -0.025,1.05c0.563,35.925 29.842,65.013 65.902,65.013c28.732,0 53.157,-18.063 62.186,-44.063l-62.501,0l-0,-44l69.53,0c0.358,-1.99 0.729,-3.4 1.169,-5.133c0.002,-0.017 0.005,-0.029 0.007,-0.026l-0.007,0.026c-0.002,0.017 -0.005,0.037 -0.007,0.054l-0.006,0.026c-0,0 -0,0 -0,0c-0,0 -0,0 -0,0c-0,0 0,0.001 0,0.001c0.001,-0 0.001,-0.001 0.001,-0.001c0.001,-0.001 0.001,-0.002 0.001,-0.002l0.002,-0.012c0.001,-0.004 0.002,-0.008 0.002,-0.012l-0.006,0.026c0.545,-2.148 1.163,-4.266 1.833,-6.36c0.113,-0.354 0.24,-0.702 0.356,-1.054c0.562,-1.696 1.163,-3.373 1.804,-5.031c0.177,-0.458 0.357,-0.915 0.54,-1.371c0.684,-1.699 1.407,-3.378 2.172,-5.034c0.121,-0.263 0.234,-0.53 0.358,-0.791c1.858,-3.938 3.946,-7.745 6.241,-11.409c0.162,-0.257 0.329,-0.511 0.493,-0.767c1.024,-1.605 2.087,-3.183 3.192,-4.73c0.004,-0.006 0.008,-0.012 0.013,-0.019c0.127,-0.178 0.253,-0.358 0.38,-0.536l0.001,-0.001c0.024,-0.034 0.048,-0.067 0.072,-0.101c0.028,-0.038 0.056,-0.076 0.084,-0.115l0.006,-0.008c0.189,-0.261 0.379,-0.52 0.57,-0.778c0.188,-0.254 0.377,-0.507 0.567,-0.759l-1.211,1.639c2.582,-3.56 5.366,-6.966 8.347,-10.187c0.323,-0.349 0.649,-0.697 0.978,-1.042l0.009,-0.009c0.224,-0.236 0.449,-0.471 0.675,-0.704c0.458,-0.473 0.919,-0.941 1.385,-1.405c0.165,-0.165 0.331,-0.329 0.497,-0.493c0.081,-0.079 0.161,-0.158 0.242,-0.237c0.005,-0.005 -0.008,0.008 -0.013,0.012l-0.091,0.089c-0.069,0.068 -0.138,0.136 -0.207,0.204c-0.211,0.209 -0.421,0.418 -0.63,0.628l-0.01,0.009c0.316,-0.316 0.633,-0.63 0.952,-0.942c0.096,-0.095 0.196,-0.186 0.293,-0.28c1.198,-1.165 2.422,-2.304 3.672,-3.414c0.178,-0.158 0.361,-0.311 0.541,-0.468c1.178,-1.032 2.376,-2.042 3.598,-3.024c0.25,-0.201 0.505,-0.396 0.757,-0.595c1.163,-0.917 2.342,-1.814 3.541,-2.685c0.32,-0.232 0.643,-0.457 0.965,-0.686c1.15,-0.815 2.315,-1.611 3.496,-2.383c0.379,-0.247 0.761,-0.49 1.143,-0.732c1.142,-0.726 2.297,-1.431 3.467,-2.115c0.436,-0.255 0.874,-0.507 1.314,-0.756c1.133,-0.641 2.278,-1.261 3.434,-1.863c0.492,-0.255 0.984,-0.509 1.48,-0.757c1.124,-0.564 2.262,-1.104 3.408,-1.629c0.542,-0.249 1.084,-0.498 1.63,-0.737c1.117,-0.49 2.247,-0.955 3.383,-1.409c0.591,-0.236 1.181,-0.475 1.777,-0.7c1.11,-0.421 2.234,-0.814 3.361,-1.2c0.636,-0.217 1.268,-0.44 1.909,-0.646c1.11,-0.356 2.232,-0.682 3.357,-1.004c0.671,-0.192 1.337,-0.393 2.013,-0.572c1.117,-0.297 2.246,-0.559 3.376,-0.821c0.699,-0.161 1.392,-0.335 2.096,-0.483c1.132,-0.239 2.278,-0.44 3.423,-0.644c0.713,-0.126 1.421,-0.269 2.139,-0.381c1.176,-0.185 2.365,-0.328 3.553,-0.476c0.698,-0.086 1.39,-0.192 2.091,-0.265c1.29,-0.135 2.594,-0.222 3.898,-0.312c0.61,-0.042 1.215,-0.107 1.828,-0.139c1.919,-0.1 3.85,-0.154 5.794,-0.154c30.299,0 57.729,12.281 77.584,32.136l-30.966,30.966c-11.93,-11.93 -28.412,-19.309 -46.618,-19.309c-1.33,0 -2.647,0.051 -3.958,0.128l1.061,-0.056c-0.236,0.011 -0.472,0.023 -0.708,0.036c-0.076,0.005 -0.153,0.009 -0.23,0.013l-0.123,0.008c-0.005,-0 0.01,-0.001 0.015,-0.001l0.092,-0.006c0.077,-0.004 0.154,-0.009 0.231,-0.013c0.225,-0.012 0.451,-0.024 0.677,-0.035l0.007,-0c-0.342,0.016 -0.682,0.034 -1.022,0.054c-0.068,0.004 -0.135,0.009 -0.201,0.013c0.067,-0.004 0.134,-0.009 0.201,-0.013c-0.067,0.004 -0.134,0.009 -0.201,0.013c-0.265,0.019 -0.528,0.041 -0.792,0.062l-0.103,0.009l-0.078,0.006l0.102,-0.008c0.026,-0.003 0.053,-0.005 0.079,-0.007l-0.126,0.01c-0.021,0.002 -0.043,0.003 -0.064,0.005c-0.015,0.001 -0.03,0.002 -0.044,0.003c-0.103,0.009 -0.205,0.017 -0.308,0.025l-0.001,0c0.118,-0.009 0.235,-0.019 0.353,-0.028c-0.146,0.012 -0.292,0.023 -0.438,0.035l-0.001,0.001c-0.186,0.015 -0.373,0.031 -0.559,0.049c-0.175,0.016 -0.349,0.032 -0.524,0.05l-0.001,-0c-0.425,0.042 -0.849,0.089 -1.272,0.139c0.11,-0.013 0.22,-0.026 0.33,-0.039l-0.005,0.001c-0.09,0.01 -0.181,0.021 -0.271,0.032c-0.044,0.005 -0.088,0.01 -0.132,0.015c-0.052,0.007 -0.104,0.013 -0.156,0.019c-0.233,0.028 -0.466,0.057 -0.698,0.088c-0.068,0.009 -0.136,0.018 -0.204,0.027c-0.035,0.005 -0.071,0.01 -0.106,0.015c-0.024,0.003 -0.048,0.007 -0.072,0.01l-0.123,0.017c-0.583,0.084 -1.163,0.175 -1.74,0.274l-0.005,0c-0.243,0.042 -0.486,0.085 -0.729,0.129c-0.082,0.015 -0.164,0.03 -0.246,0.045c-0.035,0.007 -0.07,0.013 -0.105,0.02c-0.021,0.004 -0.042,0.008 -0.063,0.011c-0.191,0.035 -0.383,0.065 -0.574,0.1c-0.041,0.008 -0.083,0.016 -0.124,0.024c-0.018,0.003 -0.035,0.007 -0.052,0.01c-0.025,0.005 -0.05,0.01 -0.075,0.015c-0.079,0.016 -0.159,0.032 -0.238,0.049l-0.004,0c0.111,-0.022 0.221,-0.045 0.331,-0.067c-0.815,0.164 -1.625,0.342 -2.429,0.534l-0.012,0.003c-0.314,0.075 -0.626,0.153 -0.938,0.233c-0.093,0.023 -0.185,0.047 -0.278,0.071c-0.029,0.008 -0.058,0.016 -0.087,0.023c-0.025,0.007 -0.051,0.014 -0.076,0.02c-0.052,0.014 -0.103,0.029 -0.154,0.043l-0.004,0.001c-0.151,0.044 -0.301,0.089 -0.454,0.131c0.099,-0.027 0.197,-0.056 0.295,-0.085c-0.098,0.029 -0.196,0.057 -0.294,0.084c-1.027,0.281 -2.044,0.585 -3.051,0.914c-0.324,0.106 -0.647,0.217 -0.969,0.328c-0.96,0.33 -1.909,0.682 -2.849,1.055c-0.249,0.099 -0.501,0.193 -0.749,0.295c-2.41,0.992 -4.75,2.12 -7.007,3.38c-0.15,0.084 -0.296,0.17 -0.446,0.255c-0.996,0.566 -1.976,1.156 -2.94,1.772c-0.158,0.1 -0.315,0.196 -0.472,0.298c-3.326,2.167 -6.447,4.615 -9.322,7.33c-0.048,0.046 -0.096,0.075 -0.143,0.12c-3.892,3.698 -7.334,7.829 -10.234,12.374l-0.028,-0.023Zm0.028,0.023l-0.02,-0.016c-0.003,-0.003 -0.008,-0.01 -0.008,-0.007c-0.003,0.023 -0.004,0.046 -0,0.068c0,0.005 0.005,-0.009 0.008,-0.013l0.02,-0.032Zm30.576,-25.533l-0.012,0.004c0.004,-0.001 0.008,-0.003 0.012,-0.004Zm0.087,-0.036l-0.034,0.014l-0.042,0.017l0.056,-0.023c0.006,-0.002 0.013,-0.005 0.02,-0.008Zm0.018,-0.007c-0.002,0.001 -0.004,0.002 -0.006,0.003c0.002,-0.001 0.004,-0.002 0.006,-0.003Zm0.017,-0.007l-0.006,0.002l0.006,-0.002Zm0.07,-0.028l-0.012,0.005l0.012,-0.005Zm0.024,-0.009l-0.018,0.007l0.018,-0.007Zm0.04,-0.016l-0.035,0.014c0.012,-0.005 0.024,-0.009 0.035,-0.014Zm0.118,-0.046l-0.041,0.016c0.013,-0.005 0.027,-0.01 0.041,-0.016Zm0.211,-0.082c-0.024,0.009 -0.047,0.019 -0.071,0.028l-0.058,0.022l0.07,-0.027c0.02,-0.008 0.039,-0.015 0.059,-0.023Zm0.129,-0.05l-0.047,0.018c-0.027,0.011 -0.053,0.021 -0.08,0.031l0.086,-0.033c0.013,-0.006 0.027,-0.011 0.041,-0.016Zm0.017,-0.007l-0.011,0.004l0.011,-0.004Zm2.855,-1.058c-0.48,0.165 -0.958,0.336 -1.432,0.512c-0.475,0.176 -0.947,0.357 -1.416,0.543c0.939,-0.373 1.888,-0.724 2.848,-1.055Zm0.241,-0.083l-0.03,0.011c0.01,-0.004 0.02,-0.007 0.03,-0.011Zm0.227,-0.077l-0.11,0.037c-0.019,0.006 -0.037,0.013 -0.056,0.019l0.075,-0.025c0.031,-0.011 0.061,-0.021 0.091,-0.031Zm0.015,-0.006c0.01,-0.003 0.02,-0.006 0.031,-0.01l-0.031,0.01Zm0.042,-0.014c0.006,-0.002 0.012,-0.004 0.019,-0.006l-0.019,0.006Zm0.148,-0.05c-0.035,0.012 -0.069,0.024 -0.103,0.035c0.034,-0.011 0.068,-0.023 0.103,-0.035Zm0.015,-0.005l-0.015,0.005c0.005,-0.001 0.01,-0.003 0.015,-0.005Zm0.045,-0.015l0.016,-0.005l-0.016,0.005Zm0.221,-0.073c-0.048,0.016 -0.097,0.032 -0.145,0.048l-0.023,0.007l0.023,-0.007c0.048,-0.016 0.097,-0.032 0.145,-0.048Zm0.001,-0c0.005,-0.002 0.009,-0.003 0.014,-0.005c-0.005,0.002 -0.009,0.003 -0.014,0.005Zm0.05,-0.016l0.059,-0.019l-0.059,0.019Zm0.082,-0.027c0.008,-0.002 0.016,-0.005 0.024,-0.007l-0.024,0.007Zm0.059,-0.019l-0.023,0.008c0.008,-0.003 0.016,-0.005 0.023,-0.008Zm0.107,-0.034l-0.092,0.029c0.031,-0.01 0.061,-0.019 0.092,-0.029Zm0.201,-0.065l0.012,-0.003c-0.056,0.017 -0.111,0.035 -0.166,0.053l-0.012,0.003c0.055,-0.017 0.11,-0.035 0.166,-0.053Zm0.047,-0.015c0.004,-0.001 0.008,-0.002 0.012,-0.003l-0.012,0.003Zm0.547,-0.17c-0.135,0.041 -0.27,0.083 -0.405,0.126l-0.012,0.003c0.139,-0.043 0.278,-0.087 0.417,-0.129Zm0.058,-0.018l-0.015,0.004c0.005,-0.001 0.01,-0.003 0.015,-0.004Zm0.524,-0.158c-0.048,0.014 -0.096,0.028 -0.143,0.043c-0.102,0.03 -0.203,0.061 -0.304,0.091l-0.065,0.02l0.065,-0.02c0.149,-0.045 0.298,-0.09 0.447,-0.134Zm0.334,-0.098c-0.08,0.023 -0.159,0.046 -0.239,0.07l-0.008,0.002c0.086,-0.025 0.173,-0.051 0.259,-0.076l-0.012,0.004Zm0.036,-0.011l0.119,-0.034l-0.119,0.034Zm0.317,-0.091l-0.13,0.037l-0.048,0.014l0.048,-0.014l0.136,-0.039l0.012,-0.003l-0.018,0.005Zm0.486,-0.137l-0.106,0.03l-0.158,0.044c-0.056,0.016 -0.112,0.032 -0.168,0.048l-0.012,0.003c0.063,-0.018 0.126,-0.036 0.189,-0.054l0.063,-0.017l0.139,-0.039c0.018,-0.005 0.035,-0.01 0.053,-0.015Zm0.113,-0.031l-0.077,0.021c0.026,-0.007 0.051,-0.014 0.077,-0.021Zm0.079,-0.022c-0.016,0.005 -0.032,0.009 -0.048,0.013c0.016,-0.004 0.032,-0.008 0.048,-0.013Zm-71.597,-0.488c-0.021,0.03 -0.042,0.059 -0.063,0.089c-0.076,0.107 -0.151,0.214 -0.227,0.32c0.097,-0.136 0.193,-0.273 0.29,-0.409Zm76.128,-0.591c-0.025,0.005 -0.05,0.01 -0.074,0.015c0.024,-0.005 0.049,-0.01 0.074,-0.015Zm0.019,-0.003l-0.019,0.003l0.019,-0.003Zm0.006,-0.001l0.012,-0.003l-0.012,0.003Zm0.062,-0.012l-0.044,0.008l0.044,-0.008Zm0.037,-0.007l-0.035,0.007l0.035,-0.007Zm0.094,-0.016l-0.076,0.013l0.076,-0.013Zm0.106,-0.019l-0.094,0.016l0.094,-0.016Zm0.275,-0.047l-0.1,0.017l-0.012,0.002c-0.038,0.007 -0.075,0.013 -0.113,0.02l0.144,-0.025l0.081,-0.014Zm0.006,-0.001l0.056,-0.011c-0.018,0.004 -0.037,0.007 -0.056,0.011Zm3.139,-0.517l0.067,-0.009l-0.067,0.009Zm0.203,-0.028c-0.039,0.005 -0.077,0.011 -0.116,0.016l-0.01,0.001c0.045,-0.006 0.091,-0.012 0.136,-0.018l-0.01,0.001Zm0.029,-0.004c-0.003,0.001 -0.006,0.001 -0.01,0.002l0.01,-0.002Zm0.029,-0.004c-0.009,0.001 -0.017,0.003 -0.026,0.004c0.009,-0.001 0.017,-0.003 0.026,-0.004Zm0.116,-0.015l-0.058,0.008c0.02,-0.003 0.039,-0.005 0.058,-0.008Zm0,0l0.049,-0.006l-0.049,0.006Zm0.068,-0.009l-0.011,0.002c0.004,-0.001 0.008,-0.001 0.011,-0.002Zm0.049,-0.006l-0.047,0.006c0.016,-0.002 0.031,-0.004 0.047,-0.006Zm0.029,-0.004l-0.027,0.004l0.027,-0.004Zm0.058,-0.007l-0.058,0.007c0.019,-0.002 0.039,-0.005 0.058,-0.007Zm0,-0l0.02,-0.003l-0.02,0.003Zm0.039,-0.005l-0.011,0.001c0.004,-0 0.007,-0.001 0.011,-0.001Zm0.01,-0.001l0.029,-0.004l-0.029,0.004Zm0.184,-0.023c-0.048,0.006 -0.097,0.012 -0.146,0.018l0.01,-0.001c0.052,-0.007 0.104,-0.013 0.156,-0.019l-0.02,0.002Zm0.058,-0.007l-0.019,0.002l0.019,-0.002Zm0.175,-0.021l-0.081,0.009c0.027,-0.003 0.054,-0.006 0.081,-0.009Zm0.024,-0.003l0.171,-0.021l-0.171,0.021Zm-16.803,4.369c0.005,-0.002 0.01,-0.004 0.016,-0.006l-0.016,0.006Zm0.039,-0.015l-0.012,0.005l0.012,-0.005Zm4.685,-1.702l0.014,-0.005l-0.014,0.005Zm0.258,-0.082l0.098,-0.031l-0.036,0.011c-0.021,0.006 -0.042,0.013 -0.062,0.02Zm1.122,-0.345l0.012,-0.003l-0.012,0.003Zm0.059,-0.017l-0.036,0.01c0.012,-0.003 0.024,-0.007 0.036,-0.01Zm1.294,-0.369c0.008,-0.002 0.016,-0.004 0.024,-0.006c-0.008,0.002 -0.016,0.004 -0.024,0.006Zm8.546,-1.739c0.006,-0.001 0.013,-0.002 0.019,-0.003l-0.019,0.003Zm0.66,-0.083l-0.04,0.005c0.013,-0.002 0.026,-0.004 0.04,-0.005Z" style="fill-rule:nonzero;"/></g></svg>