<?xml version="1.0" encoding="UTF-8" standalone="no"?><!DOCTYPE svg PUBLIC "-//W3C//DTD SVG 1.1//EN" "http://www.w3.org/Graphics/SVG/1.1/DTD/svg11.dtd"><svg width="100%" height="100%" viewBox="0 0 914 220" version="1.1" xmlns="http://www.w3.org/2000/svg" xmlns:xlink="http://www.w3.org/1999/xlink" xml:space="preserve" xmlns:serif="http://www.serif.com/" style="fill-rule:evenodd;clip-rule:evenodd;stroke-linejoin:round;stroke-miterlimit:2;"><rect id="logo-white-black-text" x="0.125" y="0.48" width="913" height="219.44" style="fill:none;"/><clipPath id="_clip1"><rect x="0.125" y="0.48" width="913" height="219.44"/></clipPath><g clip-path="url(#_clip1)"><path d="M913.125,0.17l-260,0c-21.91,0 -40.811,12.857 -49.591,31.434c-3.44,7.131 -5.375,15.124 -5.404,23.566l-0.005,0l0,164.44l260.25,0c30.238,0 54.75,-24.512 54.75,-54.75c0,-0.087 -0.006,-0.172 -0.007,-0.259c0.001,-0.087 0.007,-0.173 0.007,-0.26l0,-164.171Z" style="fill:#fff;fill-rule:nonzero;"/><path d="M650.279,139.922c0,-7.193 6.126,-13.452 14.116,-13.452c7.326,-0 13.452,6.259 13.452,13.452c0,7.724 -6.126,13.983 -13.452,13.983c-7.99,-0 -14.116,-6.259 -14.116,-13.983" style="fill-rule:nonzero;"/><path d="M686.231,138.59l12.785,-15.316c8.924,7.325 18.911,11.586 30.099,11.586c8.523,-0 12.918,-3.461 12.918,-8.39c-0,-5.46 -4.261,-6.659 -17.58,-9.854c-19.578,-4.395 -34.094,-9.722 -34.094,-28.101c-0,-17.58 14.117,-29.3 35.027,-29.3c15.314,-0 27.302,4.395 37.023,12.519l-11.585,16.247c-8.391,-6.392 -17.581,-9.721 -26.104,-9.721c-7.326,-0 -11.454,3.462 -11.454,7.991c-0,5.593 4.395,7.458 17.98,10.387c20.508,4.395 33.694,10.256 33.694,27.435c-0,18.379 -13.983,29.832 -36.625,29.832c-16.247,-0 -31.03,-5.326 -42.084,-15.315" style="fill-rule:nonzero;"/><path d="M830.861,106.405l33.845,47.206l-27.405,-0l-20.277,-28.226l-20.417,28.226l-26.993,-0l33.982,-46.795l-33.982,-47.205l27.542,-0l20.142,28.088l20.414,-28.088l26.994,-0l-33.845,46.794Z" style="fill-rule:nonzero;"/><path d="M381.629,35.259c1.23,-1.328 2.494,-2.624 3.787,-3.89c0.096,-0.095 0.196,-0.186 0.293,-0.28c1.198,-1.165 2.422,-2.304 3.672,-3.414c0.178,-0.158 0.361,-0.311 0.541,-0.468c1.178,-1.032 2.376,-2.042 3.598,-3.024c0.25,-0.201 0.505,-0.396 0.757,-0.595c1.163,-0.917 2.342,-1.814 3.541,-2.685c0.32,-0.232 0.643,-0.457 0.965,-0.686c1.15,-0.815 2.315,-1.611 3.496,-2.383c0.379,-0.247 0.761,-0.49 1.143,-0.732c1.142,-0.726 2.297,-1.431 3.467,-2.115c0.436,-0.255 0.874,-0.507 1.314,-0.756c1.133,-0.641 2.278,-1.261 3.434,-1.863c0.492,-0.255 0.984,-0.509 1.48,-0.757c1.124,-0.564 2.262,-1.104 3.408,-1.629c0.542,-0.249 1.084,-0.498 1.63,-0.737c1.117,-0.49 2.247,-0.955 3.383,-1.409c0.591,-0.236 1.181,-0.474 1.777,-0.7c1.11,-0.421 2.234,-0.814 3.361,-1.2c0.636,-0.217 1.268,-0.44 1.909,-0.646c1.11,-0.356 2.232,-0.682 3.357,-1.004c0.671,-0.192 1.337,-0.393 2.013,-0.572c1.117,-0.297 2.246,-0.559 3.376,-0.821c0.699,-0.161 1.392,-0.335 2.096,-0.483c1.132,-0.239 2.278,-0.44 3.423,-0.644c0.713,-0.126 1.421,-0.269 2.139,-0.381c1.176,-0.185 2.365,-0.328 3.553,-0.476c0.698,-0.086 1.39,-0.192 2.091,-0.265c1.29,-0.135 2.594,-0.222 3.898,-0.312c0.61,-0.042 1.215,-0.107 1.828,-0.139c1.919,-0.1 3.85,-0.154 5.794,-0.154c30.299,0 57.729,12.281 77.584,32.136l-30.966,30.966c-11.93,-11.93 -28.412,-19.309 -46.618,-19.309c-1.33,0 -2.647,0.051 -3.958,0.128l1.061,-0.056c-0.236,0.011 -0.472,0.023 -0.708,0.036c-0.076,0.005 -0.153,0.009 -0.23,0.014l-0.123,0.007c-0.005,-0 0.01,-0.001 0.015,-0.001l0.092,-0.005c0.077,-0.005 0.154,-0.009 0.231,-0.014c0.225,-0.012 0.451,-0.024 0.677,-0.035l0.007,-0c-0.342,0.016 -0.682,0.034 -1.022,0.054c-0.35,0.021 -0.697,0.052 -1.045,0.08l-0.027,0.002c0.009,-0.001 0.018,-0.002 0.027,-0.002l-0.009,0c-0.061,0.005 -0.123,0.01 -0.184,0.015c-0.099,0.007 -0.198,0.015 -0.297,0.023l-0.001,0.001c0.118,-0.01 0.235,-0.019 0.353,-0.028c-0.146,0.011 -0.292,0.022 -0.438,0.035l-0.001,-0c-0.186,0.015 -0.373,0.032 -0.559,0.049c-0.175,0.016 -0.349,0.032 -0.524,0.05l-0.001,-0c-0.425,0.042 -0.849,0.089 -1.272,0.14c0.11,-0.014 0.22,-0.027 0.33,-0.039l-0.005,0c-0.087,0.01 -0.173,0.02 -0.26,0.03c-0.048,0.006 -0.096,0.012 -0.143,0.018c-0.065,0.007 -0.13,0.015 -0.195,0.023c-0.249,0.03 -0.498,0.061 -0.747,0.095c-0.048,0.006 -0.097,0.013 -0.145,0.019c-0.026,0.004 -0.052,0.008 -0.077,0.011c-0.048,0.007 -0.095,0.014 -0.143,0.02c-0.079,0.011 -0.158,0.023 -0.237,0.034l-0.012,0.002c-0.194,0.028 -0.387,0.058 -0.581,0.088c-0.201,0.031 -0.401,0.063 -0.602,0.096l-0.008,0.002c-0.481,0.079 -0.96,0.164 -1.437,0.253c-0.03,0.006 -0.06,0.011 -0.09,0.016l-0.058,0.011l0.058,-0.011l-0.004,0.001c-0.183,0.033 -0.366,0.062 -0.549,0.096c-0.04,0.007 -0.079,0.014 -0.118,0.022c-0.018,0.003 -0.035,0.007 -0.052,0.01c-0.025,0.005 -0.05,0.01 -0.075,0.015c-0.079,0.016 -0.159,0.032 -0.238,0.049l-0.004,0c0.111,-0.022 0.221,-0.044 0.331,-0.066c-0.815,0.163 -1.625,0.341 -2.429,0.533l-0.012,0.003c-0.314,0.076 -0.626,0.153 -0.938,0.233c-0.093,0.024 -0.185,0.048 -0.278,0.072c-0.029,0.007 -0.058,0.015 -0.087,0.023c-0.017,0.004 -0.033,0.008 -0.05,0.013c-0.017,0.004 -0.035,0.009 -0.052,0.014c-0.065,0.017 -0.13,0.036 -0.195,0.055l-0.004,0.001c-0.1,0.029 -0.199,0.058 -0.299,0.087c-0.029,0.008 -0.058,0.016 -0.087,0.024c-0.76,0.208 -1.514,0.429 -2.263,0.662c-0.037,0.012 -0.075,0.023 -0.112,0.035c0.037,-0.012 0.075,-0.023 0.112,-0.035c-0.263,0.082 -0.526,0.166 -0.788,0.251c-0.034,0.011 -0.067,0.022 -0.1,0.033l0.047,-0.015l-0.047,0.015c-0.291,0.097 -0.581,0.196 -0.869,0.296c-0.96,0.33 -1.909,0.682 -2.849,1.055c-0.249,0.099 -0.501,0.194 -0.749,0.296c-2.41,0.992 -4.75,2.121 -7.007,3.381c-0.15,0.084 -0.296,0.173 -0.446,0.258c-0.996,0.566 -1.976,1.162 -2.94,1.777c-0.158,0.101 -0.315,0.208 -0.472,0.31c-3.326,2.168 -6.447,4.639 -9.322,7.354c-0.048,0.046 -0.096,0.122 -0.143,0.168c-3.904,3.709 -7.356,7.95 -10.262,12.513l-0,0.12c11.449,9.086 25.884,13.827 43.578,13.827l24.107,0c19.697,0 37.546,3.816 53.084,11.61c5.644,2.831 10.957,5.954 15.968,9.758c9.661,7.335 18.128,16.414 25.191,27.208c0.013,0.019 0.027,0.036 0.039,0.056c-4.57,17.994 -13.593,34.204 -25.818,47.411c-20.042,21.652 -48.694,35.219 -80.524,35.219c-30.299,0 -57.729,-12.283 -77.584,-32.139l0.142,-0.146l30.824,-30.834c11.93,11.931 28.412,19.291 46.618,19.291c23.4,0 43.938,-12.241 55.638,-30.619c-0.035,-0.027 -0.073,-0.126 -0.107,-0.153c-11.433,-9.031 -25.831,-13.662 -43.471,-13.662l-24.107,0c-19.697,0 -37.545,-3.903 -53.083,-11.698l-0,0.153c-0.76,-0.382 -1.486,-0.818 -2.235,-1.217c-0.354,4.439 -0.986,8.797 -1.851,13.07c-3.209,15.865 -9.82,30.493 -19.077,43.069c-19.975,27.137 -52.128,44.755 -88.407,44.755c-35.907,0 -67.781,-17.251 -87.798,-43.913c-20.015,26.663 -51.89,43.912 -87.796,43.912c-60.597,0 -109.721,-49.124 -109.721,-109.721c-0,-60.597 49.124,-109.723 109.721,-109.723c30.332,0 57.788,12.305 77.648,32.2l-30.966,30.956c-11.935,-11.97 -28.443,-19.397 -46.682,-19.397c-36.411,0 -65.928,29.478 -65.928,65.889c-0,36.411 29.517,65.851 65.928,65.851c28.732,0 53.154,-18.186 62.184,-44.186l-61.905,0l-0,-43l67.785,0c10.148,-51 54.431,-88.052 107.53,-88.052c30.332,0 57.787,12.082 77.648,31.977l-30.966,30.994c-11.936,-11.969 -28.443,-19.321 -46.682,-19.321c-36.412,0 -65.928,29.631 -65.928,66.042c-0,0.044 0.003,0.36 0.003,0.36l0.048,0c-0.001,0 -0.022,0.305 -0.025,0.612c0.563,35.925 29.842,64.574 65.902,64.574c28.732,0 53.157,-18.186 62.186,-44.186l-62.501,0l-0,-43l69.53,0c0.36,-2 0.733,-3.791 1.176,-5.536c-0.006,-0.01 -0.014,-0.262 -0.02,-0.272c0.545,-2.148 1.163,-4.266 1.833,-6.36c0.113,-0.354 0.24,-0.702 0.356,-1.054c0.562,-1.696 1.163,-3.373 1.804,-5.031c0.177,-0.458 0.357,-0.915 0.54,-1.371c0.684,-1.699 1.407,-3.378 2.172,-5.034c0.121,-0.263 0.234,-0.53 0.358,-0.791c1.858,-3.938 3.946,-7.745 6.241,-11.409c0.162,-0.257 0.329,-0.511 0.493,-0.767c1.024,-1.605 2.087,-3.183 3.192,-4.73c0.118,-0.166 0.236,-0.334 0.355,-0.501c-0.039,0.054 -0.077,0.108 -0.115,0.162c-0.08,0.113 -0.16,0.227 -0.241,0.34c0.161,-0.226 0.319,-0.453 0.482,-0.678c-0.002,0.003 -0.004,0.006 -0.006,0.009c0.002,-0.003 0.004,-0.007 0.007,-0.01c0.102,-0.14 0.204,-0.281 0.307,-0.421l-0.004,0.005c-0.069,0.094 -0.137,0.187 -0.205,0.281c-0.023,0.031 -0.046,0.063 -0.069,0.094c-0.007,0.01 -0.015,0.021 -0.022,0.031c-0.003,0.004 -0.01,0.014 -0.008,0.011c0.014,-0.02 0.029,-0.04 0.043,-0.059c0.032,-0.044 0.064,-0.089 0.096,-0.133c0.097,-0.132 0.193,-0.264 0.29,-0.396c0.212,-0.289 0.426,-0.576 0.64,-0.862c0.106,-0.141 0.212,-0.282 0.318,-0.422l-1.386,1.871c2.582,-3.56 5.366,-6.966 8.347,-10.187c1.23,-1.328 2.494,-2.624 3.787,-3.89l-2.902,2.946c0.233,-0.246 0.468,-0.491 0.704,-0.735c0.471,-0.488 0.947,-0.972 1.428,-1.451c0.17,-0.17 0.341,-0.339 0.512,-0.508c0.086,-0.084 0.171,-0.168 0.257,-0.252c0.005,-0.004 -0.008,0.008 -0.013,0.012c-0.008,0.009 -0.017,0.017 -0.026,0.026c-0.026,0.025 -0.052,0.051 -0.077,0.076c-0.074,0.072 -0.147,0.145 -0.22,0.217c-0.224,0.221 -0.447,0.443 -0.669,0.666l-2.781,2.893Zm60.03,11.837l-0.015,0.005c0.005,-0.001 0.01,-0.003 0.015,-0.005Zm0.016,-0.004l0.023,-0.008l-0.023,0.008Zm0.283,-0.092l-0.05,0.016l-0.08,0.026c0.027,-0.009 0.053,-0.017 0.08,-0.026c0.016,-0.005 0.033,-0.011 0.05,-0.016Zm0.071,-0.023l-0.059,0.019l0.059,-0.019Zm0.118,-0.038l-0.059,0.019c0.019,-0.006 0.039,-0.012 0.059,-0.019Zm0.172,-0.054l0.017,-0.006l-0.017,0.006Zm6.918,-1.781l-0.034,0.007c-0.015,0.003 -0.031,0.006 -0.046,0.009c0.015,-0.003 0.031,-0.006 0.046,-0.009l0.034,-0.007Zm0.044,-0.008l-0.025,0.005c0.008,-0.002 0.016,-0.003 0.025,-0.005Zm0.018,-0.004l-0.015,0.003c0.005,-0.001 0.01,-0.002 0.015,-0.003Zm0.056,-0.01l-0.031,0.006l0.031,-0.006Zm0.025,-0.004l-0.012,0.002l0.012,-0.002Zm0.044,-0.008l-0.006,0.001l0.006,-0.001Zm0.044,-0.008l-0.019,0.004c0.006,-0.001 0.012,-0.002 0.019,-0.004Zm0.062,-0.01l-0.06,0.01l0.06,-0.01Zm0.025,-0.005l-0.023,0.004l0.023,-0.004Zm0.138,-0.023c-0.046,0.008 -0.092,0.015 -0.138,0.023c0.046,-0.008 0.092,-0.015 0.138,-0.023Zm0.056,-0.01l-0.012,0.002l0.012,-0.002Zm0.05,-0.009c-0.008,0.002 -0.017,0.003 -0.025,0.005l0.025,-0.005Zm7.324,-0.963c-0.028,0.002 -0.056,0.004 -0.083,0.006l0.083,-0.006Zm0.942,-0.073l0.019,-0.002l-0.019,0.002Zm0.074,-0.005l-0.033,0.002c0.011,-0.001 0.022,-0.001 0.033,-0.002Zm0.047,-0.003l-0.036,0.002l0.036,-0.002Zm-16.488,3.123c0.02,-0.006 0.039,-0.013 0.059,-0.019l-0.059,0.019Zm0.059,-0.019l0.059,-0.019l-0.059,0.019Zm0.275,-0.089l0.02,-0.006l-0.02,0.006Zm0.257,-0.082c-0.044,0.014 -0.087,0.028 -0.13,0.042l-0.011,0.003c0.051,-0.016 0.102,-0.032 0.153,-0.048l-0.012,0.003Zm7.11,-1.82c-0.005,0.001 -0.011,0.002 -0.016,0.003c0.005,-0.001 0.011,-0.002 0.016,-0.003Zm0.027,-0.004c0.006,-0.001 0.011,-0.002 0.017,-0.003l-0.017,0.003Z" style="fill:#fff;fill-rule:nonzero;"/></g></svg>