<?xml version="1.0" encoding="UTF-8" standalone="no"?><!DOCTYPE svg PUBLIC "-//W3C//DTD SVG 1.1//EN" "http://www.w3.org/Graphics/SVG/1.1/DTD/svg11.dtd"><svg width="100%" height="100%" viewBox="0 0 250 251" version="1.1" xmlns="http://www.w3.org/2000/svg" xmlns:xlink="http://www.w3.org/1999/xlink" xml:space="preserve" xmlns:serif="http://www.serif.com/" style="fill-rule:evenodd;clip-rule:evenodd;stroke-linejoin:round;stroke-miterlimit:2;"><rect id="sx-emblem-black" x="0" y="0.73" width="250" height="250" style="fill:none;"/><clipPath id="_clip1"><rect x="0" y="0.73" width="250" height="250"/></clipPath><g clip-path="url(#_clip1)"><path d="M208.328,87.73l-22.071,-0l-16.692,22.967l-16.47,-22.967l-22.52,-0l27.786,38.668l-27.786,38.332l22.072,-0l16.693,-23.079l16.58,23.079l22.408,-0l-27.673,-38.668l27.673,-38.332Zm-111.522,77.329c18.514,-0 29.947,-9.364 29.947,-24.392c0,-14.047 -10.781,-18.839 -27.55,-22.433c-11.108,-2.395 -14.702,-3.919 -14.702,-8.493c0,-3.703 3.376,-6.533 9.366,-6.533c6.969,-0 14.483,2.721 21.344,7.948l9.473,-13.284c-7.949,-6.644 -17.751,-10.237 -30.272,-10.237c-17.098,-0 -28.641,9.582 -28.641,23.957c0,15.028 11.87,19.384 27.878,22.977c10.89,2.613 14.374,3.593 14.374,8.058c0,4.03 -3.593,6.86 -10.563,6.86c-9.147,-0 -17.314,-3.484 -24.61,-9.473l-10.454,12.523c9.038,8.167 21.126,12.522 34.41,12.522m-52.264,-0c5.99,-0 10.999,-5.118 10.999,-11.433c0,-5.881 -5.009,-10.999 -10.999,-10.999c-6.533,-0 -11.542,5.118 -11.542,10.999c0,6.315 5.009,11.433 11.542,11.433m205.458,-40.329l-0.014,-0c0.003,-0 0.014,0.647 0.014,1l0,62.5c0,34.518 -27.983,62.5 -62.5,62.5l-187.5,-0l0,-187.5c0,-34.518 27.982,-62.5 62.5,-62.5l187.5,-0l0,124Z" style="fill-rule:nonzero;"/></g></svg>