<?xml version="1.0" encoding="UTF-8" standalone="no"?><!DOCTYPE svg PUBLIC "-//W3C//DTD SVG 1.1//EN" "http://www.w3.org/Graphics/SVG/1.1/DTD/svg11.dtd"><svg width="100%" height="100%" viewBox="0 0 251 251" version="1.1" xmlns="http://www.w3.org/2000/svg" xmlns:xlink="http://www.w3.org/1999/xlink" xml:space="preserve" xmlns:serif="http://www.serif.com/" style="fill-rule:evenodd;clip-rule:evenodd;stroke-linejoin:round;stroke-miterlimit:2;"><rect id="sx-emblem-yellow" x="0.508" y="0.48" width="250" height="250" style="fill:none;"/><clipPath id="_clip1"><rect x="0.508" y="0.48" width="250" height="250"/></clipPath><g clip-path="url(#_clip1)"><path d="M250.508,1.322l-187.5,0c-34.518,0 -62.5,27.825 -62.5,62.342l-0,187.658l187.5,0c34.518,0 62.5,-28.14 62.5,-62.658l-0,-62.5c-0,-0.352 -0.01,-0.842 -0.013,-0.842l0.013,0l-0,-124Z" style="fill:#ffd600;fill-rule:nonzero;"/><path d="M33.508,154.061c-0,-5.881 5.009,-10.999 11.542,-10.999c5.99,-0 10.999,5.118 10.999,10.999c-0,6.315 -5.009,11.433 -10.999,11.433c-6.533,-0 -11.542,-5.118 -11.542,-11.433" style="fill-rule:nonzero;"/><path d="M62.904,152.971l10.454,-12.523c7.296,5.989 15.463,9.473 24.611,9.473c6.969,0 10.563,-2.83 10.563,-6.86c-0,-4.465 -3.485,-5.445 -14.375,-8.057c-16.008,-3.594 -27.877,-7.95 -27.877,-22.978c-0,-14.374 11.542,-23.957 28.64,-23.957c12.522,0 22.323,3.593 30.272,10.237l-9.473,13.284c-6.86,-5.227 -14.375,-7.948 -21.344,-7.948c-5.99,0 -9.366,2.83 -9.366,6.533c-0,4.574 3.594,6.098 14.702,8.494c16.769,3.593 27.55,8.385 27.55,22.432c-0,15.028 -11.433,24.392 -29.946,24.392c-13.285,0 -25.372,-4.354 -34.411,-12.522" style="fill-rule:nonzero;"/><path d="M181.163,126.654l27.673,38.668l-22.407,-0l-16.58,-23.079l-16.694,23.079l-22.071,-0l27.785,-38.332l-27.785,-38.668l22.52,-0l16.469,22.967l16.692,-22.967l22.071,-0l-27.673,38.332Z" style="fill-rule:nonzero;"/></g></svg>