<svg xmlns="http://www.w3.org/2000/svg" viewBox="0 0 250 250"><defs><style>.a{fill:#fff;}</style></defs><title>icon</title><path class="a" d="M250,0H62.5A62.5,62.5,0,0,0,0,62.5V250H187.5A62.5,62.5,0,0,0,250,187.5V125c0-.35,0-1,0-1h0V0Z"/><path d="M83.39,183.33a4.76,4.76,0,0,1,4.86-4.63,4.72,4.72,0,0,1,0,9.44A4.79,4.79,0,0,1,83.39,183.33Z"/><path d="M95.76,182.87l4.4-5.27a16.09,16.09,0,0,0,10.36,4c2.93,0,4.45-1.19,4.45-2.89,0-1.88-1.47-2.29-6-3.39-6.74-1.51-11.73-3.35-11.73-9.67,0-6,4.86-10.08,12.05-10.08A19,19,0,0,1,122,159.86l-4,5.59a15.09,15.09,0,0,0-9-3.35c-2.52,0-3.94,1.19-3.94,2.75,0,1.92,1.51,2.57,6.19,3.57,7.06,1.51,11.59,3.53,11.59,9.44,0,6.32-4.81,10.27-12.6,10.27A21.32,21.32,0,0,1,95.76,182.87Z"/><path d="M145.29,171.93L156.62,188h-9.17l-6.78-9.44L133.84,188h-9l11.37-15.93L124.81,156H134l6.74,9.4,6.83-9.4h9Z"/><path d="M221.76,110.75a36.25,36.25,0,0,0-8.42-9.1A35.17,35.17,0,0,0,208,98.14,39.29,39.29,0,0,0,190.25,94h-8.06c-5.92,0-10.74-1.33-14.57-4.37v0.09A21.91,21.91,0,0,1,171,85.6l0,0a22.08,22.08,0,0,1,3.12-2.44l0.16-.1c0.32-.21.65-0.4,1-0.59l0.15-.08a22,22,0,0,1,2.34-1.13l0.25-.1,1-.35,0.32-.11,1-.31,0.22-.06q0.62-.16,1.26-0.29l0.27,0,1-.17,0.42-.05,0.93-.09,0.4,0c0.44,0,.88,0,1.32,0A22,22,0,0,1,201.8,86l10.35-10.35a36.57,36.57,0,0,0-25.94-10.74q-1,0-1.94.05l-0.61,0c-0.44,0-.87.06-1.3,0.1l-0.7.09-1.19.16-0.72.13-1.14.22-0.7.16-1.13.27-0.67.19-1.12.34-0.64.22-1.12.4-0.59.23-1.13.47-0.55.25-1.14.54-0.49.25-1.15.62-0.44.25-1.16.71-0.38.24q-0.59.39-1.17,0.8l-0.32.23q-0.6.44-1.18,0.9l-0.25.2q-0.61.49-1.2,1l-0.18.16q-0.63.56-1.23,1.14l-0.1.09q-0.65.64-1.27,1.3a37,37,0,0,0-2.79,3.41l-0.16.23q-0.55.78-1.07,1.58l-0.16.26A36.6,36.6,0,0,0,153,86l-0.12.26q-0.38.83-.73,1.68L152,88.4q-0.32.83-.6,1.68l-0.12.35c-0.22.7-.43,1.41-0.61,2.13V92.4a7.5,7.5,0,0,1-.39,1.6H127v15h20.93a21.49,21.49,0,0,1-20.79,14.72,21.92,21.92,0,0,1-22-21.55c0-.1,0-0.16,0-0.16h0v-0.19a22.07,22.07,0,0,1,37.65-15.67l10.35-10.37a36.73,36.73,0,0,0-26-10.95c-17.75,0-32.56,13.18-36,29.18H68v15H89.21a21.48,21.48,0,0,1-20.79,14.72A22,22,0,1,1,84,86.1L94.38,75.75a36.68,36.68,0,1,0,3.39,47.92,36.68,36.68,0,0,0,65.91-19.05h0c0.25,0.13.49,0.28,0.75,0.41h0a39.22,39.22,0,0,0,17.75,4h8.06c5.9,0,10.71,1.49,14.53,4.51l0,0a22,22,0,0,1-34.19,3.77L160.32,127.6l0,0a36.7,36.7,0,0,0,61.5-16.88v0Z"/></svg>