<svg xmlns="http://www.w3.org/2000/svg" viewBox="0 0 250 250"><defs><style>.a{fill:#fff;}</style></defs><title>icon</title><path class="a" d="M250,124h0s0,0.65,0,1v62.5A62.5,62.5,0,0,1,187.5,250H0V62.5A62.5,62.5,0,0,1,62.5,0H250V124ZM88.24,188.14a4.72,4.72,0,1,0-4.86-4.81A4.75,4.75,0,0,0,88.24,188.14Zm22,0c7.79,0,12.6-3.94,12.6-10.27,0-5.91-4.54-7.93-11.59-9.44-4.67-1-6.19-1.65-6.19-3.57,0-1.56,1.42-2.75,3.94-2.75a15.09,15.09,0,0,1,9,3.35l4-5.59a19,19,0,0,0-12.74-4.31c-7.2,0-12.05,4-12.05,10.08,0,6.32,5,8.16,11.73,9.67,4.58,1.1,6,1.51,6,3.39,0,1.7-1.51,2.89-4.45,2.89a16.09,16.09,0,0,1-10.36-4l-4.4,5.27A21.32,21.32,0,0,0,110.24,188.14ZM156.62,156h-9l-6.83,9.4L134,156h-9.21l11.37,16.07L124.81,188h9l6.83-9.44,6.78,9.44h9.17l-11.32-16.07Zm65.14-45.25a36.25,36.25,0,0,0-8.42-9.1A35.17,35.17,0,0,0,208,98.14,39.29,39.29,0,0,0,190.25,94h-8.06C176.27,94,171,92.67,168,89.63v0.09a22.07,22.07,0,0,1,3.24-4.12s-0.06,0,0,0a21.66,21.66,0,0,1,3.07-2.44l0.13-.1c0.32-.21.64-0.4,1-0.59l0.14-.08a21.91,21.91,0,0,1,2.34-1.13l0.25-.1,1-.35,0.32-.11,1-.31,0.22-.06q0.62-.16,1.26-0.29l0.27,0,1-.17,0.42-.05,0.93-.09,0.4,0c0.44,0,.88,0,1.32,0A22,22,0,0,1,201.8,86l10.35-10.35a36.57,36.57,0,0,0-25.94-10.74q-1,0-1.94.05l-0.61,0c-0.44,0-.87.06-1.3,0.1l-0.7.09-1.19.16-0.72.13-1.14.22-0.7.16-1.13.27-0.67.19-1.12.34-0.64.22-1.12.4-0.59.23-1.13.47-0.55.25-1.14.54-0.49.25-1.15.62-0.44.25-1.16.71-0.38.24q-0.59.39-1.17,0.8l-0.32.23q-0.6.44-1.18,0.9l-0.25.2q-0.61.49-1.2,1l-0.18.16q-0.63.56-1.23,1.14l-0.1.09q-0.65.64-1.27,1.3a37,37,0,0,0-2.79,3.41l-0.16.23q-0.55.78-1.07,1.58l-0.16.26A36.6,36.6,0,0,0,153,86l-0.12.26q-0.38.83-.73,1.68L152,88.4q-0.32.83-.6,1.68l-0.12.35c-0.22.7-.43,1.41-0.61,2.13V92.4a7.5,7.5,0,0,1-.39,1.6H127v15h20.93a21.49,21.49,0,0,1-20.79,14.72,21.92,21.92,0,0,1-22-21.55c0-.1,0-0.16,0-0.16h0v-0.19a22.07,22.07,0,0,1,37.65-15.67l10.35-10.37a36.73,36.73,0,0,0-26-10.95c-17.75,0-32.56,13.18-36,29.18H68v15H89.21a21.48,21.48,0,0,1-20.79,14.72A22,22,0,1,1,84,86.1L94.38,75.75a36.68,36.68,0,1,0,3.39,47.92A36.68,36.68,0,0,0,163.07,109a36.67,36.67,0,0,0,.4-4.37h0a1,1,0,0,1,.53.41h0a43.74,43.74,0,0,0,18.19,4h8.06c5.9,0,10.71,1.49,14.53,4.51l0,0a22,22,0,0,1-34.19,3.77L160.32,127.6l0,0a36.7,36.7,0,0,0,61.5-16.88v0Z"/></svg>