<svg xmlns="http://www.w3.org/2000/svg" viewBox="0 0 250 250"><defs><style>.a{fill:#fff;}</style></defs><title>icon</title><path class="a" d="M250,0H62.5A62.37,62.37,0,0,0,0,62.34V250H187.5A62.63,62.63,0,0,0,250,187.34v-62.5c0-.35,0-0.84,0-0.84h0V0Z"/><path d="M33,152.74a11.3,11.3,0,0,1,11.54-11,11.22,11.22,0,0,1,0,22.43A11.39,11.39,0,0,1,33,152.74Z"/><path d="M62.4,151.65l10.45-12.52c7.3,6,15.46,9.47,24.61,9.47,7,0,10.56-2.83,10.56-6.86,0-4.46-3.48-5.45-14.37-8.06-16-3.59-27.88-7.95-27.88-23,0-14.37,11.54-24,28.64-24,12.52,0,22.32,3.59,30.27,10.24l-9.47,13.28c-6.86-5.23-14.37-7.95-21.34-7.95-6,0-9.37,2.83-9.37,6.53,0,4.57,3.59,6.1,14.7,8.49,16.77,3.59,27.55,8.39,27.55,22.43,0,15-11.43,24.39-29.95,24.39C83.52,164.17,71.43,159.82,62.4,151.65Z"/><path d="M180.65,125.33L208.33,164H185.92l-16.58-23.08L152.65,164H130.58l27.79-38.33L130.58,87H153.1l16.47,23,16.69-23h22.07Z"/></svg>