<svg xmlns="http://www.w3.org/2000/svg" viewBox="0 0 913 219.44"><title>icon</title><path d="M913,0.44V164.61c0,0.09,0,.17,0,0.26s0,0.17,0,.26a54.75,54.75,0,0,1-54.75,54.75H598V55.44h0a55.27,55.27,0,0,1,55-55H913ZM664.27,154.17c7.33,0,13.45-6.26,13.45-14a13.68,13.68,0,0,0-13.45-13.45c-8,0-14.12,6.26-14.12,13.45A13.93,13.93,0,0,0,664.27,154.17Zm63.92,0c22.64,0,36.62-11.45,36.62-29.83,0-17.18-13.19-23-33.69-27.43-13.59-2.93-18-4.79-18-10.39,0-4.53,4.13-8,11.45-8,8.52,0,17.71,3.33,26.1,9.72L762.28,72c-9.72-8.12-21.71-12.52-37-12.52-20.91,0-35,11.72-35,29.3,0,18.38,14.52,23.71,34.09,28.1,13.32,3.2,17.58,4.39,17.58,9.85,0,4.93-4.4,8.39-12.92,8.39-11.19,0-21.18-4.26-30.1-11.59l-12.79,15.32C697.16,148.85,711.94,154.17,728.19,154.17ZM864.58,59.88h-27L817.17,88,797,59.88H769.49l34,47.21-34,46.79h27l20.42-28.23,20.28,28.23h27.4l-33.84-47.21Z"/><path d="M458.07,44.24l-1.18.09Z"/><path d="M454.09,44.6l-1.24.16Z"/><path d="M437.73,48.75L437,49Z"/><path d="M385.29,31.64a110.26,110.26,0,0,0-12.13,14.08,110.51,110.51,0,0,1,8.35-10.19Q383.35,33.54,385.29,31.64Z"/><path d="M441.55,47.37l-1,.33Z"/><path d="M449.83,45.25l-0.8.14Z"/><path d="M445.26,46.27l-0.66.19Z"/><path d="M372.67,46.4l0.48-.68Z"/><path d="M440.58,47.7q-1.44.5-2.85,1.06Q439.14,48.19,440.58,47.7Z"/><path d="M444.6,46.45q-1.54.42-3.05,0.91Q443.06,46.87,444.6,46.45Z"/><path d="M456.89,44.33q-1.41.11-2.8,0.27Q455.48,44.43,456.89,44.33Z"/><path d="M449,45.4q-1.91.38-3.77,0.87Q447.12,45.78,449,45.4Z"/><path d="M462,44.11c-1.33,0-2.65.05-4,.13C459.38,44.16,460.7,44.11,462,44.11Z"/><path d="M452.85,44.76q-1.52.21-3,.49Q451.33,45,452.85,44.76Z"/><path d="M568.32,137.33a108.42,108.42,0,0,0-25.19-27.21,102.94,102.94,0,0,0-16-10.14c-15.54-7.79-33.39-12-53.08-12H450c-17.69,0-32.13-4.36-43.58-13.45v0.07A66.12,66.12,0,0,1,416.65,62.2l0.14-.12a66.21,66.21,0,0,1,9.32-7.33l0.47-.3q1.45-.92,2.94-1.77l0.45-.26A65.67,65.67,0,0,1,437,49l0.75-.3q1.41-.56,2.85-1.05l1-.33q1.51-.49,3.05-0.91l0.66-.19q1.87-.49,3.77-0.87l0.8-.14q1.5-.28,3-0.49l1.24-.16q1.39-.17,2.8-0.27l1.18-.09c1.31-.08,2.63-0.13,4-0.13a65.72,65.72,0,0,1,46.62,19.31l31-31A109.38,109.38,0,0,0,462,.32q-2.92,0-5.79.15c-0.61,0-1.22.1-1.83,0.14-1.3.09-2.61,0.18-3.9,0.31-0.7.07-1.39,0.18-2.09,0.27-1.19.15-2.38,0.29-3.55,0.48-0.72.11-1.43,0.26-2.14,0.38-1.14.2-2.29,0.4-3.42,0.64-0.7.15-1.4,0.32-2.1,0.48-1.13.26-2.26,0.52-3.38,0.82-0.68.18-1.34,0.38-2,.57-1.12.32-2.25,0.65-3.36,1-0.64.21-1.27,0.43-1.91,0.65-1.13.39-2.25,0.78-3.36,1.2l-1.78.7c-1.14.45-2.27,0.92-3.38,1.41l-1.63.74c-1.15.53-2.28,1.07-3.41,1.63l-1.48.76q-1.73.9-3.43,1.86l-1.31.76q-1.75,1-3.47,2.11l-1.14.73q-1.77,1.16-3.5,2.38l-1,.69q-1.8,1.31-3.54,2.68l-0.76.6q-1.83,1.47-3.6,3l-0.54.47q-1.88,1.66-3.67,3.41l-0.29.28q-1.94,1.9-3.79,3.89a110.51,110.51,0,0,0-8.35,10.19l-0.48.68q-1.66,2.32-3.19,4.73L369,51.9a109.48,109.48,0,0,0-6.24,11.41c-0.12.26-.24,0.53-0.36,0.79q-1.15,2.48-2.17,5l-0.54,1.37q-1,2.49-1.8,5c-0.12.35-.24,0.7-0.36,1.05-0.67,2.09-1.29,4.21-1.83,6.36,0,0,0-.12,0-0.11-0.44,1.75-.82,3.16-1.18,5.16H285v44h62.5a65.91,65.91,0,0,1-128.09-20.95c0-.31,0-0.05,0-1.05h0s0,0.06,0,0A65.9,65.9,0,0,1,332,63.58l31-30.95A109.65,109.65,0,0,0,177.78,88H110v44h61.9a65.91,65.91,0,1,1-15.5-68.39l31-31A109.72,109.72,0,1,0,197.52,176a109.71,109.71,0,0,0,197.13-57h0c0.75,0.4,1.47.84,2.23,1.22v0C412.42,128,430.27,132,450,132h24.11c17.64,0,32,4.51,43.47,13.54l0.11,0.09A65.91,65.91,0,0,1,415.4,156.91l-30.82,30.83-0.14.14a109.78,109.78,0,0,0,183.93-50.49Z"/></svg>