<svg xmlns="http://www.w3.org/2000/svg" viewBox="0 0 913 219.44"><defs><style>.a{fill:#fff;}</style></defs><title>icon</title><path d="M737,0H653a55.27,55.27,0,0,0-55,55h0V219.44H858.25A54.75,54.75,0,0,0,913,164.69c0-.09,0-0.17,0-0.26s0-.17,0-0.26V0H737Z"/><path class="a" d="M650.15,139.75c0-7.19,6.13-13.45,14.12-13.45a13.68,13.68,0,0,1,13.45,13.45c0,7.72-6.13,14-13.45,14A13.93,13.93,0,0,1,650.15,139.75Z"/><path class="a" d="M686.11,138.42l12.79-15.32c8.92,7.32,18.91,11.59,30.1,11.59,8.52,0,12.92-3.46,12.92-8.39,0-5.46-4.26-6.66-17.58-9.85-19.58-4.4-34.09-9.72-34.09-28.1,0-17.58,14.12-29.3,35-29.3,15.31,0,27.3,4.4,37,12.52L750.7,87.81c-8.39-6.39-17.58-9.72-26.1-9.72-7.33,0-11.45,3.46-11.45,8,0,5.59,4.4,7.46,18,10.39,20.51,4.4,33.69,10.26,33.69,27.43,0,18.38-14,29.83-36.62,29.83C711.94,153.73,697.16,148.41,686.11,138.42Z"/><path class="a" d="M830.74,106.23l33.84,47.21h-27.4L816.9,125.21l-20.42,28.23h-27l34-46.79-34-47.21H797l20.14,28.09,20.41-28.09h27Z"/><path d="M458.07,44.68l-1.18.09Z"/><path d="M454.09,45l-1.24.16Z"/><path d="M437.73,49.19l-0.75.3Z"/><path d="M385.29,32.09a110.26,110.26,0,0,0-12.13,14.08A110.51,110.51,0,0,1,381.5,36Q383.35,34,385.29,32.09Z"/><path d="M441.55,47.81l-1,.33Z"/><path d="M449.83,45.69l-0.8.14Z"/><path d="M445.26,46.71l-0.66.19Z"/><path d="M372.67,46.84l0.48-.68Z"/><path d="M440.58,48.14q-1.44.5-2.85,1.06Q439.14,48.63,440.58,48.14Z"/><path d="M444.6,46.89q-1.54.42-3.05,0.91Q443.06,47.31,444.6,46.89Z"/><path d="M456.89,44.77q-1.41.11-2.8,0.27Q455.48,44.87,456.89,44.77Z"/><path d="M449,45.84q-1.91.38-3.77,0.87Q447.12,46.22,449,45.84Z"/><path d="M462,44.55c-1.33,0-2.65.05-4,.13C459.38,44.6,460.7,44.55,462,44.55Z"/><path d="M452.85,45.2q-1.52.21-3,.49Q451.33,45.41,452.85,45.2Z"/><path d="M568.32,137.77a108.42,108.42,0,0,0-25.19-27.21,102.94,102.94,0,0,0-16-10.14c-15.54-7.79-33.39-12-53.08-12H450c-17.69,0-32.13-4.36-43.58-13.45v0.07a66.12,66.12,0,0,1,10.26-12.42l0.14-.12a66.21,66.21,0,0,1,9.32-7.33l0.47-.3q1.45-.92,2.94-1.77l0.45-.26a65.67,65.67,0,0,1,7-3.38l0.75-.3q1.41-.56,2.85-1.05l1-.33q1.51-.49,3.05-0.91l0.66-.19q1.87-.49,3.77-0.87l0.8-.14q1.5-.28,3-0.49l1.24-.16q1.39-.17,2.8-0.27l1.18-.09c1.31-.08,2.63-0.13,4-0.13a65.72,65.72,0,0,1,46.62,19.31l31-31A109.38,109.38,0,0,0,462,.76q-2.92,0-5.79.15c-0.61,0-1.22.1-1.83,0.14-1.3.09-2.61,0.18-3.9,0.31-0.7.07-1.39,0.18-2.09,0.27-1.19.15-2.38,0.29-3.55,0.48-0.72.11-1.43,0.26-2.14,0.38-1.14.2-2.29,0.4-3.42,0.64-0.7.15-1.4,0.32-2.1,0.48-1.13.26-2.26,0.52-3.38,0.82-0.68.18-1.34,0.38-2,.57-1.12.32-2.25,0.65-3.36,1-0.64.21-1.27,0.43-1.91,0.65-1.13.39-2.25,0.78-3.36,1.2l-1.78.7C420.28,9,419.15,9.47,418,10l-1.63.74c-1.15.53-2.28,1.07-3.41,1.63l-1.48.76q-1.73.9-3.43,1.86l-1.31.76q-1.75,1-3.47,2.11l-1.14.73q-1.77,1.16-3.5,2.38l-1,.69q-1.8,1.31-3.54,2.68l-0.76.6q-1.83,1.47-3.6,3l-0.54.47q-1.88,1.66-3.67,3.41l-0.29.28Q383.35,34,381.5,36a110.51,110.51,0,0,0-8.35,10.19l-0.48.68q-1.66,2.32-3.19,4.73l-0.49.77a109.48,109.48,0,0,0-6.24,11.41c-0.12.26-.24,0.53-0.36,0.79q-1.15,2.48-2.17,5l-0.54,1.37q-1,2.49-1.8,5c-0.12.35-.24,0.7-0.36,1.05-0.67,2.09-1.29,4.21-1.83,6.36,0,0,0-.12,0-0.11-0.44,1.75-.82,3.16-1.18,5.16H285v44h62.5a65.91,65.91,0,0,1-128.09-20.95c0-.31,0-0.05,0-1.05h0s0,0.06,0,0A65.9,65.9,0,0,1,332,64l31-30.95A109.65,109.65,0,0,0,177.78,88.44H110v44h61.9a65.91,65.91,0,1,1-15.5-68.39l31-31a109.72,109.72,0,1,0,10.15,143.33,109.71,109.71,0,0,0,197.13-57h0c0.75,0.4,1.47.84,2.23,1.22v0c15.54,7.79,33.39,11.82,53.08,11.82h24.11c17.64,0,32,4.51,43.47,13.54l0.11,0.09A65.91,65.91,0,0,1,415.4,157.35l-30.82,30.83-0.14.14a109.78,109.78,0,0,0,183.93-50.49Z"/></svg>