<svg xmlns="http://www.w3.org/2000/svg" viewBox="0 0 913 219.44"><defs><style>.a{fill:#fff;}</style></defs><title>icon</title><path class="a" d="M737-.31H653a55.27,55.27,0,0,0-55,55h0V219.13H858.25A54.75,54.75,0,0,0,913,164.38c0-.09,0-0.17,0-0.26s0-.17,0-0.26V-0.31H737Z"/><path d="M650.15,139.44c0-7.19,6.13-13.45,14.12-13.45a13.68,13.68,0,0,1,13.45,13.45c0,7.72-6.13,14-13.45,14A13.93,13.93,0,0,1,650.15,139.44Z"/><path d="M686.11,138.11l12.79-15.32c8.92,7.32,18.91,11.59,30.1,11.59,8.52,0,12.92-3.46,12.92-8.39,0-5.46-4.26-6.66-17.58-9.85-19.58-4.4-34.09-9.72-34.09-28.1,0-17.58,14.12-29.3,35-29.3,15.31,0,27.3,4.4,37,12.52L750.7,87.5c-8.39-6.39-17.58-9.72-26.1-9.72-7.33,0-11.45,3.46-11.45,8,0,5.59,4.4,7.46,18,10.39,20.51,4.4,33.69,10.26,33.69,27.43,0,18.38-14,29.83-36.62,29.83C711.94,153.42,697.16,148.1,686.11,138.11Z"/><path d="M830.74,105.93l33.84,47.21h-27.4L816.9,124.91l-20.42,28.23h-27l34-46.79-34-47.21H797l20.14,28.09,20.41-28.09h27Z"/><path class="a" d="M458.07,43.48l-1.18.09Z"/><path class="a" d="M454.09,43.84l-1.24.16Z"/><path class="a" d="M437.73,48l-0.75.3Z"/><path class="a" d="M385.29,30.89A110.26,110.26,0,0,0,373.16,45a110.51,110.51,0,0,1,8.35-10.19Q383.35,32.79,385.29,30.89Z"/><path class="a" d="M441.55,46.61l-1,.33Z"/><path class="a" d="M449.83,44.5l-0.8.14Z"/><path class="a" d="M445.26,45.51l-0.66.19Z"/><path class="a" d="M372.67,45.65l0.48-.68Z"/><path class="a" d="M440.58,46.94q-1.44.5-2.85,1.06Q439.14,47.44,440.58,46.94Z"/><path class="a" d="M444.6,45.7q-1.54.42-3.05,0.91Q443.06,46.12,444.6,45.7Z"/><path class="a" d="M456.89,43.57q-1.41.11-2.8,0.27Q455.48,43.68,456.89,43.57Z"/><path class="a" d="M449,44.64q-1.91.38-3.77,0.87Q447.12,45,449,44.64Z"/><path class="a" d="M462,43.35c-1.33,0-2.65.05-4,.13C459.38,43.4,460.7,43.35,462,43.35Z"/><path class="a" d="M452.85,44q-1.52.21-3,.49Q451.33,44.22,452.85,44Z"/><path class="a" d="M568.32,136.58a108.42,108.42,0,0,0-25.19-27.21,100.81,100.81,0,0,0-16-9.76C511.62,91.82,493.77,88,474.07,88H450c-17.69,0-32.13-4.74-43.58-13.83V74.05a66.72,66.72,0,0,1,10.26-12.51s0.1-.12.14-0.17A66.37,66.37,0,0,1,426.12,54l0.47-.31c1-.62,1.94-1.21,2.94-1.78l0.45-.26a65.68,65.68,0,0,1,7-3.38l0.75-.3q1.41-.56,2.85-1.06l1-.33q1.51-.49,3.05-0.91l0.66-.19q1.87-.49,3.77-0.87l0.8-.14q1.5-.28,3-0.49l1.24-.16q1.39-.17,2.8-0.27l1.18-.09c1.31-.08,2.63-0.13,4-0.13a65.72,65.72,0,0,1,46.62,19.31l31-31A109.38,109.38,0,0,0,462-.44q-2.92,0-5.79.15c-0.61,0-1.22.1-1.83,0.14-1.3.09-2.61,0.18-3.9,0.31-0.7.07-1.39,0.18-2.09,0.27-1.19.15-2.38,0.29-3.55,0.48-0.72.11-1.43,0.26-2.14,0.38-1.14.2-2.29,0.4-3.42,0.64-0.7.15-1.4,0.32-2.1,0.48-1.13.26-2.26,0.52-3.38,0.82-0.68.18-1.34,0.38-2,.57-1.12.32-2.25,0.65-3.36,1-0.64.21-1.27,0.43-1.91,0.65-1.13.39-2.25,0.78-3.36,1.2l-1.78.7c-1.14.45-2.27,0.92-3.38,1.41l-1.63.74c-1.15.53-2.28,1.07-3.41,1.63l-1.48.76q-1.73.9-3.43,1.86l-1.31.76q-1.75,1-3.47,2.11l-1.14.73q-1.77,1.16-3.5,2.38l-1,.69q-1.8,1.31-3.54,2.68l-0.76.6q-1.83,1.47-3.6,3l-0.54.47q-1.88,1.66-3.67,3.41l-0.29.28q-1.94,1.9-3.79,3.89A110.51,110.51,0,0,0,373.16,45l-0.48.68Q371,48,369.48,50.37l-0.49.77a109.48,109.48,0,0,0-6.24,11.41c-0.12.26-.24,0.53-0.36,0.79q-1.15,2.48-2.17,5l-0.54,1.37q-1,2.49-1.8,5c-0.12.35-.24,0.7-0.36,1.05-0.67,2.09-1.29,4.21-1.83,6.36,0,0,0,.26,0,0.27-0.44,1.75-.82,3.54-1.18,5.54H285v43h62.5a65.89,65.89,0,0,1-128.09-20.39c0-.31,0-0.61,0-0.61h0s0-.32,0-0.36A66,66,0,0,1,332,62.92l31-31A109.88,109.88,0,0,0,177.78,88H110v43h61.9a65.85,65.85,0,1,1-15.5-68.16l31-31a109.72,109.72,0,1,0,10.15,143.33,109.71,109.71,0,0,0,197.13-57h0c0.75,0.4,1.47.84,2.23,1.22V119.3C412.42,127.1,430.27,131,450,131h24.11c17.64,0,32,4.63,43.47,13.66,0,0,.07.13,0.11,0.15A65.91,65.91,0,0,1,415.4,156.14L384.57,187l-0.14.15a109.77,109.77,0,0,0,183.93-50.49Z"/></svg>