<svg xmlns="http://www.w3.org/2000/svg" viewBox="0 0 913 219.44"><defs><style>.a{fill:#fff;}</style></defs><title>icon</title><path class="a" d="M913,0V164.17c0,0.09,0,.17,0,0.26s0,0.17,0,.26a54.75,54.75,0,0,1-54.75,54.75H598V55h0A55.27,55.27,0,0,1,653,0H913ZM664.27,153.73c7.33,0,13.45-6.26,13.45-14a13.68,13.68,0,0,0-13.45-13.45c-8,0-14.12,6.26-14.12,13.45A13.93,13.93,0,0,0,664.27,153.73Zm63.92,0c22.64,0,36.62-11.45,36.62-29.83,0-17.18-13.19-23-33.69-27.43-13.59-2.93-18-4.79-18-10.39,0-4.53,4.13-8,11.45-8,8.52,0,17.71,3.33,26.1,9.72l11.59-16.25c-9.72-8.12-21.71-12.52-37-12.52-20.91,0-35,11.72-35,29.3,0,18.38,14.52,23.71,34.09,28.1,13.32,3.2,17.58,4.39,17.58,9.85,0,4.93-4.4,8.39-12.92,8.39-11.19,0-21.18-4.26-30.1-11.59l-12.79,15.32C697.16,148.41,711.94,153.73,728.19,153.73ZM864.58,59.44h-27L817.17,87.53,797,59.44H769.49l34,47.21-34,46.79h27l20.42-28.23,20.28,28.23h27.4l-33.84-47.21Z"/><path class="a" d="M458.07,43.92l-1.18.09Z"/><path class="a" d="M454.09,44.29l-1.24.16Z"/><path class="a" d="M437.73,48.44l-0.75.3Z"/><path class="a" d="M385.29,31.33a110.26,110.26,0,0,0-12.13,14.08,110.51,110.51,0,0,1,8.35-10.19Q383.35,33.23,385.29,31.33Z"/><path class="a" d="M441.55,47.05l-1,.33Z"/><path class="a" d="M449.83,44.94l-0.8.14Z"/><path class="a" d="M445.26,46l-0.66.19Z"/><path class="a" d="M372.67,46.09l0.48-.68Z"/><path class="a" d="M440.58,47.38q-1.44.5-2.85,1.06Q439.14,47.88,440.58,47.38Z"/><path class="a" d="M444.6,46.14q-1.54.42-3.05,0.91Q443.06,46.56,444.6,46.14Z"/><path class="a" d="M456.89,44q-1.41.11-2.8,0.27Q455.48,44.12,456.89,44Z"/><path class="a" d="M449,45.08q-1.91.38-3.77,0.87Q447.12,45.46,449,45.08Z"/><path class="a" d="M462,43.79c-1.33,0-2.65.05-4,.13C459.38,43.84,460.7,43.79,462,43.79Z"/><path class="a" d="M452.85,44.44q-1.52.21-3,.49Q451.33,44.66,452.85,44.44Z"/><path class="a" d="M568.32,137a108.42,108.42,0,0,0-25.19-27.21,100.81,100.81,0,0,0-16-9.76c-15.54-7.79-33.39-11.61-53.08-11.61H450c-17.69,0-32.13-4.74-43.58-13.83V74.49A66.72,66.72,0,0,1,416.65,62s0.1-.12.14-0.17a66.37,66.37,0,0,1,9.32-7.35l0.47-.31c1-.62,1.94-1.21,2.94-1.78l0.45-.26a65.68,65.68,0,0,1,7-3.38l0.75-.3q1.41-.56,2.85-1.06l1-.33q1.51-.49,3.05-0.91l0.66-.19q1.87-.49,3.77-0.87l0.8-.14q1.5-.28,3-0.49l1.24-.16q1.39-.17,2.8-0.27l1.18-.09c1.31-.08,2.63-0.13,4-0.13A65.72,65.72,0,0,1,508.65,63.1l31-31A109.38,109.38,0,0,0,462,0q-2.92,0-5.79.15c-0.61,0-1.22.1-1.83,0.14-1.3.09-2.61,0.18-3.9,0.31-0.7.07-1.39,0.18-2.09,0.27-1.19.15-2.38,0.29-3.55,0.48-0.72.11-1.43,0.26-2.14,0.38-1.14.2-2.29,0.4-3.42,0.64-0.7.15-1.4,0.32-2.1,0.48-1.13.26-2.26,0.52-3.38,0.82-0.68.18-1.34,0.38-2,.57-1.12.32-2.25,0.65-3.36,1-0.64.21-1.27,0.43-1.91,0.65-1.13.39-2.25,0.78-3.36,1.2l-1.78.7c-1.14.45-2.27,0.92-3.38,1.41l-1.63.74c-1.15.53-2.28,1.07-3.41,1.63l-1.48.76q-1.73.9-3.43,1.86l-1.31.76q-1.75,1-3.47,2.11l-1.14.73q-1.77,1.16-3.5,2.38l-1,.69q-1.8,1.31-3.54,2.68l-0.76.6q-1.83,1.47-3.6,3l-0.54.47q-1.88,1.66-3.67,3.41l-0.29.28q-1.94,1.9-3.79,3.89a110.51,110.51,0,0,0-8.35,10.19l-0.48.68q-1.66,2.32-3.19,4.73l-0.49.77A109.48,109.48,0,0,0,362.75,63c-0.12.26-.24,0.53-0.36,0.79q-1.15,2.48-2.17,5l-0.54,1.37q-1,2.49-1.8,5c-0.12.35-.24,0.7-0.36,1.05-0.67,2.09-1.29,4.21-1.83,6.36,0,0,0,.26,0,0.27-0.44,1.75-.82,3.54-1.18,5.54H285v43h62.5a65.89,65.89,0,0,1-128.09-20.39c0-.31,0-0.61,0-0.61h0s0-.32,0-0.36A66,66,0,0,1,332,63.36l31-31A109.88,109.88,0,0,0,177.78,88.44H110v43h61.9a65.85,65.85,0,1,1-15.5-68.16l31-31a109.72,109.72,0,1,0,10.15,143.33,109.71,109.71,0,0,0,197.13-57h0c0.75,0.4,1.47.84,2.23,1.22v-0.15c15.54,7.79,33.39,11.7,53.08,11.7h24.11c17.64,0,32,4.63,43.47,13.66,0,0,.07.13,0.11,0.15A65.91,65.91,0,0,1,415.4,156.58l-30.82,30.83-0.14.15a109.77,109.77,0,0,0,183.93-50.49Z"/></svg>