<?xml version="1.0" encoding="UTF-8" standalone="no"?><!DOCTYPE svg PUBLIC "-//W3C//DTD SVG 1.1//EN" "http://www.w3.org/Graphics/SVG/1.1/DTD/svg11.dtd"><svg width="100%" height="100%" viewBox="0 0 250 251" version="1.1" xmlns="http://www.w3.org/2000/svg" xmlns:xlink="http://www.w3.org/1999/xlink" xml:space="preserve" xmlns:serif="http://www.serif.com/" style="fill-rule:evenodd;clip-rule:evenodd;stroke-linejoin:round;stroke-miterlimit:2;"><rect id="emblem-white-black-text" x="0" y="0.98" width="250" height="250" style="fill:none;"/><clipPath id="_clip1"><rect x="0" y="0.98" width="250" height="250"/></clipPath><g clip-path="url(#_clip1)"><path d="M250,78.84c-0,-2.968 0.001,-5.936 -0.017,-8.904c-0.015,-2.501 -0.044,-5 -0.112,-7.499c-0.147,-5.447 -0.468,-10.941 -1.437,-16.327c-0.982,-5.464 -2.586,-10.549 -5.115,-15.514c-2.485,-4.879 -5.732,-9.344 -9.605,-13.215c-3.873,-3.871 -8.34,-7.116 -13.221,-9.6c-4.969,-2.529 -10.06,-4.132 -15.53,-5.114c-5.387,-0.968 -10.882,-1.288 -16.329,-1.435c-2.501,-0.068 -5.001,-0.097 -7.503,-0.112c-2.97,-0.018 -5.939,-0.017 -8.909,-0.017l-34.48,-0.123l-25.789,-0l-33.87,0.123c-2.976,0 -5.951,-0.001 -8.926,0.017c-2.507,0.015 -5.013,0.044 -7.518,0.112c-5.46,0.147 -10.967,0.468 -16.367,1.436c-5.477,0.982 -10.575,2.585 -15.552,5.112c-4.891,2.484 -9.367,5.729 -13.248,9.601c-3.881,3.871 -7.133,8.335 -9.623,13.213c-2.536,4.967 -4.143,10.056 -5.128,15.522c-0.969,5.384 -1.291,10.876 -1.439,16.321c-0.067,2.499 -0.096,4.999 -0.111,7.499c-0.018,2.968 -0.171,6.655 -0.171,9.624l0.001,33.401l-0.001,26.064l0.154,34.111c0,2.972 -0.001,5.944 0.017,8.916c0.015,2.504 0.044,5.007 0.112,7.51c0.147,5.454 0.469,10.955 1.44,16.349c0.984,5.47 2.591,10.563 5.124,15.534c2.491,4.886 5.744,9.357 9.625,13.234c3.88,3.876 8.355,7.125 13.246,9.613c4.979,2.532 10.08,4.138 15.561,5.121c5.397,0.969 10.902,1.29 16.36,1.437c2.505,0.068 5.011,0.097 7.518,0.112c2.975,0.018 5.95,0.017 8.926,0.017l34.176,0.001l25.853,-0l34.11,-0.001c2.97,-0 5.939,0.001 8.909,-0.017c2.502,-0.015 5.002,-0.044 7.503,-0.112c5.449,-0.147 10.946,-0.469 16.335,-1.438c5.467,-0.984 10.555,-2.589 15.522,-5.119c4.882,-2.488 9.349,-5.737 13.223,-9.614c3.873,-3.876 7.119,-8.346 9.605,-13.232c2.529,-4.973 4.134,-10.068 5.117,-15.543c0.967,-5.391 1.288,-10.891 1.436,-16.342c0.067,-2.503 0.096,-5.006 0.111,-7.51c0.018,-2.972 0.017,-5.944 0.017,-8.916c-0,-0 -0.002,-33.509 -0.002,-34.111l0,-26.092c0,-0.444 0.002,-34.093 0.002,-34.093Z" style="fill:#fff;"/><path d="M83.385,184.309c-0,-2.475 2.108,-4.629 4.858,-4.629c2.521,0 4.629,2.154 4.629,4.629c-0,2.658 -2.108,4.812 -4.629,4.812c-2.75,0 -4.858,-2.154 -4.858,-4.812" style="fill-rule:nonzero;"/><path d="M95.757,183.851l4.4,-5.271c3.07,2.521 6.507,3.988 10.357,3.988c2.934,-0 4.446,-1.192 4.446,-2.888c-0,-1.879 -1.467,-2.291 -6.05,-3.391c-6.737,-1.512 -11.732,-3.345 -11.732,-9.67c-0,-6.05 4.857,-10.083 12.053,-10.083c5.27,-0 9.395,1.513 12.741,4.308l-3.987,5.591c-2.887,-2.199 -6.05,-3.345 -8.983,-3.345c-2.521,-0 -3.942,1.191 -3.942,2.75c-0,1.925 1.513,2.566 6.188,3.574c7.057,1.513 11.595,3.53 11.595,9.441c-0,6.325 -4.812,10.266 -12.604,10.266c-5.591,-0 -10.678,-1.833 -14.482,-5.27" style="fill-rule:nonzero;"/><path d="M145.295,172.911l11.32,16.069l-9.166,-0l-6.782,-9.441l-6.829,9.441l-9.029,-0l11.366,-15.931l-11.366,-16.069l9.212,-0l6.737,9.395l6.829,-9.395l9.028,-0l-11.32,15.931Z" style="fill-rule:nonzero;"/><path d="M221.756,111.729c-2.361,-3.609 -5.193,-6.645 -8.423,-9.097c-1.675,-1.272 -3.452,-2.57 -5.339,-3.516c-5.195,-2.606 -11.163,-4.136 -17.748,-4.136l-8.06,-0c-5.916,-0 -10.743,-1.331 -14.571,-4.369l-0,0.086c0.972,-1.525 2.126,-2.88 3.431,-4.12c0.016,-0.015 0.032,-0.009 0.048,-0.024c0.961,-0.908 2.005,-1.718 3.117,-2.443c0.052,-0.034 0.105,-0.062 0.158,-0.096c0.322,-0.206 0.649,-0.401 0.983,-0.59c0.05,-0.029 0.099,-0.057 0.149,-0.085c0.754,-0.421 1.537,-0.797 2.343,-1.129c0.083,-0.034 0.167,-0.065 0.25,-0.098c0.314,-0.125 0.632,-0.243 0.952,-0.353c0.108,-0.037 0.216,-0.074 0.325,-0.11c0.336,-0.11 0.676,-0.211 1.02,-0.305c0.073,-0.02 0.146,-0.043 0.22,-0.063c0.416,-0.109 0.836,-0.206 1.261,-0.291c0.089,-0.018 0.179,-0.031 0.267,-0.048c0.335,-0.062 0.671,-0.118 1.01,-0.165c0.138,-0.019 0.277,-0.036 0.415,-0.053c0.31,-0.037 0.621,-0.067 0.935,-0.091c0.132,-0.01 0.263,-0.023 0.395,-0.03c0.439,-0.026 0.879,-0.043 1.324,-0.043c6.087,-0 11.598,2.467 15.587,6.456l10.353,-10.354c-6.639,-6.638 -15.81,-10.745 -25.94,-10.745c-0.65,-0 -1.296,0.018 -1.938,0.052c-0.205,0.011 -0.407,0.032 -0.611,0.046c-0.436,0.03 -0.872,0.06 -1.303,0.105c-0.234,0.024 -0.466,0.06 -0.699,0.088c-0.397,0.05 -0.795,0.097 -1.188,0.159c-0.24,0.038 -0.477,0.086 -0.715,0.128c-0.383,0.068 -0.766,0.135 -1.145,0.215c-0.235,0.05 -0.467,0.108 -0.701,0.162c-0.377,0.087 -0.755,0.175 -1.128,0.274c-0.226,0.06 -0.449,0.127 -0.673,0.191c-0.376,0.108 -0.752,0.217 -1.123,0.336c-0.214,0.069 -0.426,0.144 -0.638,0.216c-0.377,0.129 -0.753,0.261 -1.124,0.401c-0.199,0.076 -0.396,0.156 -0.594,0.234c-0.38,0.152 -0.758,0.308 -1.131,0.471c-0.183,0.08 -0.364,0.164 -0.545,0.247c-0.383,0.175 -0.764,0.356 -1.14,0.544c-0.165,0.083 -0.33,0.168 -0.494,0.254c-0.387,0.201 -0.77,0.408 -1.148,0.623c-0.148,0.083 -0.294,0.167 -0.44,0.252c-0.391,0.229 -0.777,0.465 -1.159,0.707c-0.128,0.081 -0.255,0.163 -0.382,0.245c-0.395,0.258 -0.785,0.524 -1.169,0.797c-0.108,0.076 -0.216,0.152 -0.323,0.229c-0.401,0.292 -0.795,0.591 -1.184,0.898c-0.084,0.067 -0.169,0.132 -0.253,0.199c-0.408,0.328 -0.809,0.666 -1.203,1.011c-0.06,0.053 -0.121,0.104 -0.181,0.157c-0.418,0.371 -0.827,0.752 -1.227,1.141c-0.033,0.032 -0.066,0.062 -0.099,0.094c-0.432,0.423 -0.854,0.856 -1.265,1.3c-0.997,1.077 -1.928,2.216 -2.791,3.406c-0.055,0.076 -0.108,0.152 -0.162,0.227c-0.369,0.517 -0.725,1.045 -1.067,1.581c-0.055,0.086 -0.111,0.171 -0.165,0.257c-0.767,1.225 -1.465,2.498 -2.087,3.814c-0.041,0.088 -0.079,0.177 -0.119,0.265c-0.256,0.554 -0.498,1.115 -0.726,1.683c-0.061,0.153 -0.122,0.305 -0.181,0.459c-0.214,0.554 -0.415,1.115 -0.603,1.682c-0.039,0.117 -0.081,0.234 -0.119,0.352c-0.224,0.7 -0.431,1.409 -0.613,2.127c0.002,0.003 0.005,-0.167 0.007,-0.163c-0.148,0.583 -0.273,1.597 -0.394,1.597l-23.275,-0l-0,15l20.925,-0c-3.019,9 -11.185,14.716 -20.792,14.716c-12.056,-0 -21.846,-9.539 -22.034,-21.551c0.001,-0.103 0.008,-0.165 0.008,-0.165l-0.016,-0c-0,-0 -0.001,-0.174 -0.001,-0.189c-0,-12.174 9.869,-22.115 22.043,-22.115c6.099,-0 11.618,2.441 15.609,6.443l10.353,-10.372c-6.64,-6.652 -15.82,-10.949 -25.962,-10.949c-17.753,-0 -32.56,13.182 -35.953,29.182l-23.18,-0l-0,15l21.214,-0c-3.019,9 -11.184,14.716 -20.791,14.716c-12.174,-0 -22.043,-9.872 -22.043,-22.046c-0,-12.174 9.869,-22.045 22.043,-22.045c6.098,-0 11.618,2.476 15.609,6.478l10.353,-10.354c-6.64,-6.651 -15.82,-10.767 -25.962,-10.767c-20.261,-0 -36.685,16.424 -36.685,36.685c-0,20.26 16.424,36.685 36.685,36.685c12.006,-0 22.663,-5.768 29.355,-14.682c6.693,8.914 17.35,14.682 29.355,14.682c12.13,-0 22.881,-5.891 29.56,-14.964c3.095,-4.205 5.305,-9.096 6.378,-14.4c0.289,-1.429 0.501,-2.886 0.619,-4.37c0.25,0.133 0.493,0.279 0.747,0.406l-0,0.007c5.195,2.606 11.163,3.969 17.749,3.969l8.06,-0c5.898,-0 10.712,1.491 14.534,4.51c0.012,0.009 0.025,0.014 0.036,0.023c-3.912,6.144 -10.779,10.223 -18.603,10.223c-6.087,-0 -11.597,-2.469 -15.586,-6.458l-10.307,10.306l-0.047,0.047c6.639,6.639 15.81,10.745 25.94,10.745c10.643,-0 20.223,-4.536 26.924,-11.776c4.087,-4.416 7.104,-9.836 8.632,-15.852c-0.004,-0.007 -0.009,-0.013 -0.013,-0.019" style="fill-rule:nonzero;"/></g></svg>