<?xml version="1.0" encoding="UTF-8" standalone="no"?><!DOCTYPE svg PUBLIC "-//W3C//DTD SVG 1.1//EN" "http://www.w3.org/Graphics/SVG/1.1/DTD/svg11.dtd"><svg width="100%" height="100%" viewBox="0 0 914 220" version="1.1" xmlns="http://www.w3.org/2000/svg" xmlns:xlink="http://www.w3.org/1999/xlink" xml:space="preserve" xmlns:serif="http://www.serif.com/" style="fill-rule:evenodd;clip-rule:evenodd;stroke-linejoin:round;stroke-miterlimit:2;"><rect id="logo-white" x="0.25" y="0.48" width="913" height="219.44" style="fill:none;"/><clipPath id="_clip1"><rect x="0.25" y="0.48" width="913" height="219.44"/></clipPath><g clip-path="url(#_clip1)"><path d="M441.67,47.574l-0.015,0.005c-0.276,0.092 -0.551,0.186 -0.825,0.281c-0.96,0.33 -1.909,0.682 -2.849,1.055c-0.249,0.099 -0.501,0.194 -0.749,0.296c-2.41,0.992 -4.75,2.121 -7.007,3.381c-0.15,0.084 -0.296,0.173 -0.446,0.258c-0.996,0.566 -1.976,1.162 -2.94,1.777c-0.158,0.101 -0.315,0.208 -0.472,0.31c-3.326,2.168 -6.447,4.639 -9.322,7.354c-0.048,0.046 -0.096,0.122 -0.143,0.168c-3.904,3.709 -7.356,7.95 -10.262,12.513l-0,0.12c11.449,9.086 25.884,13.827 43.578,13.827l24.107,0c19.697,0 37.546,3.816 53.084,11.61c5.644,2.831 10.957,5.954 15.968,9.758c9.661,7.335 18.128,16.414 25.191,27.208c0.013,0.019 0.027,0.036 0.039,0.056c-4.57,17.994 -13.593,34.204 -25.818,47.411c-20.042,21.652 -48.694,35.219 -80.524,35.219c-30.299,0 -57.729,-12.283 -77.584,-32.139l0.142,-0.146l30.824,-30.834c11.93,11.931 28.412,19.291 46.618,19.291c23.4,0 43.938,-12.241 55.638,-30.619c-0.035,-0.027 -0.073,-0.126 -0.107,-0.153c-11.433,-9.031 -25.831,-13.662 -43.471,-13.662l-24.107,0c-19.697,0 -37.545,-3.903 -53.083,-11.698l-0,0.153c-0.76,-0.381 -1.486,-0.818 -2.235,-1.217c-0.354,4.439 -0.986,8.797 -1.851,13.07c-3.209,15.865 -9.82,30.493 -19.077,43.069c-19.975,27.137 -52.128,44.755 -88.407,44.755c-35.907,0 -67.781,-17.251 -87.798,-43.913c-20.015,26.663 -51.89,43.912 -87.796,43.912c-60.597,0 -109.721,-49.124 -109.721,-109.721c-0,-60.597 49.124,-109.723 109.721,-109.723c30.332,0 57.788,12.305 77.648,32.2l-30.966,30.956c-11.935,-11.97 -28.443,-19.397 -46.682,-19.397c-36.411,0 -65.928,29.478 -65.928,65.889c-0,36.411 29.517,65.851 65.928,65.851c28.732,0 53.154,-18.186 62.184,-44.186l-61.905,0l-0,-43l67.785,0c10.148,-51 54.431,-88.052 107.53,-88.052c30.332,0 57.787,12.082 77.648,31.977l-30.966,30.994c-11.936,-11.969 -28.443,-19.321 -46.682,-19.321c-36.412,0 -65.928,29.631 -65.928,66.042c-0,0.044 0.003,0.36 0.003,0.36l0.048,0c-0.001,0 -0.022,0.305 -0.025,0.612c0.563,35.925 29.842,64.574 65.902,64.574c28.732,0 53.157,-18.186 62.186,-44.186l-62.501,0l-0,-43l69.53,0c0.36,-2 0.733,-3.791 1.176,-5.536c-0.006,-0.01 -0.014,-0.262 -0.02,-0.272c0.545,-2.148 1.163,-4.266 1.833,-6.36c0.113,-0.354 0.24,-0.702 0.356,-1.054c0.562,-1.696 1.163,-3.373 1.804,-5.031c0.177,-0.458 0.357,-0.915 0.54,-1.371c0.684,-1.699 1.407,-3.378 2.172,-5.034c0.121,-0.263 0.234,-0.53 0.358,-0.791c1.858,-3.938 3.946,-7.745 6.241,-11.409c0.162,-0.257 0.329,-0.511 0.493,-0.767c1.024,-1.605 2.087,-3.183 3.192,-4.73c0.004,-0.006 0.008,-0.012 0.013,-0.018c0.127,-0.179 0.253,-0.358 0.38,-0.537l0.001,-0.001c0.024,-0.034 0.048,-0.067 0.072,-0.1c0.028,-0.039 0.056,-0.077 0.084,-0.115l0.006,-0.009c0.189,-0.26 0.379,-0.52 0.57,-0.778c0.188,-0.254 0.377,-0.506 0.567,-0.758l-1.211,1.638c2.582,-3.56 5.366,-6.966 8.347,-10.187c0.323,-0.349 0.649,-0.696 0.978,-1.042l0.009,-0.009c0.224,-0.236 0.449,-0.47 0.675,-0.704c0.458,-0.472 0.919,-0.941 1.385,-1.405c0.165,-0.164 0.331,-0.329 0.497,-0.492c0.081,-0.08 0.161,-0.159 0.242,-0.238c0.005,-0.004 -0.008,0.009 -0.013,0.013l-0.091,0.089c-0.069,0.068 -0.138,0.136 -0.207,0.204c-0.211,0.208 -0.421,0.417 -0.63,0.627l-0.01,0.01c0.316,-0.316 0.633,-0.63 0.952,-0.943c0.096,-0.095 0.196,-0.186 0.293,-0.28c1.198,-1.165 2.422,-2.304 3.672,-3.414c0.178,-0.158 0.361,-0.311 0.541,-0.468c1.178,-1.032 2.376,-2.042 3.598,-3.024c0.25,-0.201 0.505,-0.396 0.757,-0.595c1.163,-0.917 2.342,-1.814 3.541,-2.685c0.32,-0.232 0.643,-0.457 0.965,-0.686c1.15,-0.815 2.315,-1.611 3.496,-2.383c0.379,-0.247 0.761,-0.49 1.143,-0.732c1.142,-0.726 2.297,-1.431 3.467,-2.115c0.436,-0.255 0.874,-0.507 1.314,-0.756c1.133,-0.641 2.278,-1.261 3.434,-1.863c0.492,-0.255 0.984,-0.509 1.48,-0.757c1.124,-0.564 2.262,-1.104 3.408,-1.629c0.542,-0.249 1.084,-0.498 1.63,-0.737c1.117,-0.49 2.247,-0.955 3.383,-1.409c0.591,-0.236 1.181,-0.474 1.777,-0.7c1.11,-0.421 2.234,-0.814 3.361,-1.2c0.636,-0.217 1.268,-0.44 1.909,-0.646c1.11,-0.356 2.232,-0.682 3.357,-1.004c0.671,-0.192 1.337,-0.393 2.013,-0.572c1.117,-0.297 2.246,-0.559 3.376,-0.821c0.699,-0.161 1.392,-0.335 2.096,-0.483c1.132,-0.239 2.278,-0.44 3.423,-0.644c0.713,-0.126 1.421,-0.269 2.139,-0.381c1.176,-0.185 2.365,-0.328 3.553,-0.476c0.698,-0.086 1.39,-0.192 2.091,-0.265c1.29,-0.135 2.594,-0.222 3.898,-0.312c0.61,-0.042 1.215,-0.107 1.828,-0.139c1.919,-0.1 3.85,-0.154 5.794,-0.154c30.299,0 57.729,12.281 77.584,32.136l-30.966,30.966c-11.93,-11.93 -28.412,-19.309 -46.618,-19.309c-1.33,0 -2.647,0.051 -3.958,0.128l1.339,-0.068c-0.298,0.013 -0.596,0.027 -0.893,0.044c-0.098,0.005 -0.195,0.01 -0.292,0.016c-0.036,0.002 -0.072,0.004 -0.108,0.006c-0.01,0.001 -0.02,0.002 -0.031,0.002c-0.005,0.001 -0.01,0.001 -0.015,0.001c-0.005,0 0.01,-0 0.015,-0.001l0.123,-0.007c0.097,-0.006 0.195,-0.011 0.292,-0.016c0.282,-0.016 0.564,-0.03 0.847,-0.042l0.006,-0.001c-0.428,0.019 -0.856,0.041 -1.283,0.066c-0.068,0.005 -0.135,0.009 -0.201,0.014l0.016,-0.001l-0.016,0.001c-0.265,0.018 -0.528,0.04 -0.792,0.062l-0.063,0.005c-0.018,0.001 -0.035,0.003 -0.053,0.004l0.116,-0.009l-0.116,0.009c-0.025,0.002 -0.05,0.004 -0.074,0.005c-0.03,0.003 -0.059,0.005 -0.088,0.007c-0.132,0.011 -0.263,0.022 -0.395,0.033l-0.001,-0c0.161,-0.014 0.323,-0.027 0.484,-0.039c-0.262,0.02 -0.524,0.042 -0.786,0.065c-0.097,0.008 -0.194,0.017 -0.291,0.026c-0.108,0.01 -0.216,0.021 -0.325,0.031c-0.465,0.046 -0.93,0.096 -1.393,0.152c0.15,-0.018 0.299,-0.036 0.449,-0.053l-0.004,0.001c-0.12,0.013 -0.239,0.027 -0.359,0.041c-0.054,0.007 -0.109,0.013 -0.164,0.02c-0.052,0.006 -0.104,0.012 -0.156,0.019c-0.233,0.028 -0.466,0.057 -0.698,0.087c-0.068,0.009 -0.136,0.018 -0.204,0.028c-0.035,0.005 -0.071,0.009 -0.106,0.014c-0.024,0.004 -0.048,0.007 -0.072,0.01l-0.123,0.018c-0.583,0.083 -1.163,0.174 -1.74,0.273l-0.005,0.001c-0.243,0.041 -0.486,0.084 -0.729,0.129c-0.082,0.014 -0.164,0.03 -0.246,0.045l-0.105,0.019c-0.017,0.004 -0.034,0.007 -0.05,0.01c-0.204,0.036 -0.408,0.068 -0.612,0.106c-0.031,0.006 -0.062,0.012 -0.093,0.018c-0.029,0.006 -0.059,0.012 -0.088,0.017c-0.035,0.007 -0.07,0.014 -0.104,0.021c-0.129,0.027 -0.258,0.053 -0.387,0.08l-0.006,0.001c0.18,-0.037 0.361,-0.074 0.541,-0.11c-1.271,0.255 -2.53,0.545 -3.774,0.871l1.112,-0.281c-0.372,0.091 -0.742,0.184 -1.111,0.281c-0.074,0.02 -0.147,0.04 -0.22,0.061c-0.127,0.037 -0.253,0.075 -0.38,0.11c-0.019,0.006 -0.039,0.011 -0.058,0.016c-0.709,0.194 -1.414,0.399 -2.113,0.616l-0.122,0.037l0.122,-0.037c-0.314,0.097 -0.627,0.196 -0.938,0.297c-0.048,0.016 -0.096,0.032 -0.144,0.048l0.015,-0.005Zm0.045,-0.015l-0.03,0.01l0.03,-0.01Zm0.031,-0.01l-0.008,0.003l0.008,-0.003Zm0.124,-0.04l-0.071,0.023l0.071,-0.023Zm0.26,-0.084l0.024,-0.008l-0.024,0.008Zm0.059,-0.019l0.024,-0.008l-0.024,0.008Zm0.213,-0.068l-0.098,0.031c0.033,-0.01 0.065,-0.02 0.098,-0.031Zm0.012,-0.003l0.024,-0.008l-0.024,0.008Zm0.154,-0.049l0.035,-0.011l-0.047,0.015l-0.095,0.03l0.107,-0.034Zm-69.34,-1.15c-0.021,0.03 -0.042,0.06 -0.063,0.089c-0.076,0.107 -0.151,0.214 -0.227,0.321c0.097,-0.136 0.193,-0.273 0.29,-0.41Zm76.116,-0.588l-0.038,0.007l0.038,-0.007Zm0.012,-0.002c-0.003,0 -0.006,0.001 -0.009,0.001c0.003,-0 0.006,-0.001 0.009,-0.001Zm0.087,-0.017c-0.008,0.002 -0.016,0.003 -0.024,0.005l-0.051,0.009c0.017,-0.003 0.034,-0.006 0.051,-0.009c0.008,-0.002 0.016,-0.003 0.024,-0.005Zm0.069,-0.012l-0.069,0.012c0.023,-0.004 0.046,-0.008 0.069,-0.012Zm0.025,-0.004l-0.023,0.004c0.007,-0.002 0.015,-0.003 0.023,-0.004Zm0.025,-0.005c-0.009,0.002 -0.017,0.003 -0.025,0.004c0.008,-0.001 0.016,-0.002 0.025,-0.004Zm0.056,-0.01l0.037,-0.006l-0.037,0.006Zm0.058,-0.01l0.092,-0.015l-0.092,0.015Zm0.104,-0.018l0.063,-0.01c-0.021,0.003 -0.042,0.007 -0.063,0.01Zm0.163,-0.028l-0.088,0.016l0.088,-0.016Zm-0,0l0.025,-0.004l-0.025,0.004Zm0.037,-0.006l0.037,-0.007l-0.037,0.007Zm3.207,-0.526l-0.087,0.012c0.029,-0.004 0.058,-0.008 0.087,-0.012Zm0.087,-0.012l-0.058,0.008c0.019,-0.002 0.039,-0.005 0.058,-0.008Zm0.01,-0.001l0.019,-0.002l-0.019,0.002Zm0.077,-0.01l-0.053,0.007l0.053,-0.007Zm0.039,-0.005l-0.029,0.003c0.01,-0.001 0.019,-0.002 0.029,-0.003Zm0.029,-0.004l0.092,-0.012l-0.092,0.012Zm0.126,-0.017c-0.009,0.002 -0.019,0.003 -0.028,0.004c0.009,-0.001 0.019,-0.002 0.028,-0.004Zm0.049,-0.006l-0.02,0.003c0.007,-0.001 0.013,-0.002 0.02,-0.003Zm0.029,-0.004l-0.01,0.002l0.01,-0.002Zm0.145,-0.018l-0.019,0.003l0.019,-0.003Zm0.039,-0.005l-0.03,0.004c0.01,-0.001 0.02,-0.002 0.03,-0.004Zm0.233,-0.028c-0.052,0.006 -0.104,0.012 -0.155,0.019l-0.059,0.007l0.059,-0.007c0.058,-0.007 0.116,-0.015 0.174,-0.022l-0.019,0.003Zm0.058,-0.007l-0.019,0.002l0.019,-0.002Zm0.234,-0.029l-0.156,0.019c0.052,-0.006 0.104,-0.012 0.156,-0.019Zm2.85,-0.278l-0.055,0.005l0.055,-0.005Zm0.961,-0.075l-0.018,0.002c0.006,-0.001 0.012,-0.001 0.018,-0.002Zm0.074,-0.005l-0.048,0.004l0.048,-0.004Zm0.056,-0.003l-0.037,0.002c0.012,-0 0.025,-0.001 0.037,-0.002Zm0.018,-0.001l-0.016,0.001c0.005,-0 0.011,-0.001 0.016,-0.001Zm-16.551,3.146c0.014,-0.005 0.028,-0.009 0.041,-0.014l-0.041,0.014Zm0.125,-0.041c0.038,-0.012 0.076,-0.024 0.113,-0.036c-0.037,0.012 -0.075,0.024 -0.113,0.036Zm0.231,-0.074l-0.118,0.038c0.04,-0.013 0.079,-0.026 0.118,-0.038Zm0.166,-0.053l-0.056,0.017c0.019,-0.005 0.037,-0.011 0.056,-0.017Zm11.367,-2.529c0.04,-0.005 0.08,-0.01 0.12,-0.015c-0.013,0.001 -0.026,0.003 -0.039,0.004c-0.027,0.004 -0.054,0.007 -0.081,0.011Zm0.481,-0.06l0.066,-0.008l-0.066,0.008Z" style="fill:#fff;fill-rule:nonzero;"/><path d="M641.518,1.739l-1.327,0.177l-0.883,0.133l-0.872,0.143c-0.149,0.026 -0.299,0.052 -0.448,0.079c-4.808,0.862 -9.283,2.269 -13.651,4.487c-4.293,2.181 -8.222,5.029 -11.629,8.427c-3.406,3.398 -6.261,7.316 -8.447,11.599c-2.225,4.36 -3.636,8.826 -4.5,13.624l-0.188,1.1l-0.228,1.528l-0.169,1.319l-0.07,0.611c-0.058,0.521 -0.111,1.043 -0.159,1.565l-0.079,0.912c-0.395,2.623 -0.604,5.307 -0.613,8.037l-0.005,-0l-0,164.749l260.25,0l0.385,-0.001c1.921,-0.013 3.82,-0.126 5.688,-0.332c3.066,-0.188 6.128,-0.499 9.151,-1.043c4.798,-0.863 9.265,-2.272 13.624,-4.494c4.286,-2.183 8.207,-5.035 11.606,-8.438c3.4,-3.402 6.25,-7.326 8.431,-11.615c2.221,-4.365 3.629,-8.837 4.492,-13.642c0.539,-3.003 0.849,-6.044 1.037,-9.088c0.222,-1.999 0.336,-4.035 0.336,-6.097l-0,-164.999l-260,-0c-4.027,-0 -7.952,0.434 -11.732,1.259Zm8.886,138.492c0,-7.193 6.126,-13.452 14.116,-13.452c7.326,0 13.452,6.259 13.452,13.452c0,7.724 -6.126,13.983 -13.452,13.983c-7.99,0 -14.116,-6.259 -14.116,-13.983Zm35.952,-1.332l12.785,-15.316c8.924,7.325 18.911,11.586 30.099,11.586c8.523,0 12.918,-3.461 12.918,-8.39c-0,-5.46 -4.261,-6.659 -17.58,-9.854c-19.578,-4.395 -34.094,-9.722 -34.094,-28.101c-0,-17.58 14.117,-29.3 35.027,-29.3c15.314,0 27.302,4.395 37.023,12.519l-11.585,16.247c-8.391,-6.392 -17.581,-9.721 -26.104,-9.721c-7.326,0 -11.454,3.462 -11.454,7.991c-0,5.593 4.395,7.458 17.98,10.387c20.508,4.395 33.694,10.256 33.694,27.435c-0,18.379 -13.983,29.832 -36.625,29.832c-16.247,0 -31.03,-5.326 -42.084,-15.315Zm144.63,-32.185l33.845,47.206l-27.405,0l-20.277,-28.226l-20.417,28.226l-26.993,0l33.982,-46.795l-33.982,-47.205l27.542,0l20.142,28.088l20.414,-28.088l26.994,0l-33.845,46.794Z" style="fill:#fff;fill-rule:nonzero;"/></g></svg>