<?xml version="1.0" encoding="UTF-8" standalone="no"?><!DOCTYPE svg PUBLIC "-//W3C//DTD SVG 1.1//EN" "http://www.w3.org/Graphics/SVG/1.1/DTD/svg11.dtd"><svg width="100%" height="100%" viewBox="0 0 251 251" version="1.1" xmlns="http://www.w3.org/2000/svg" xmlns:xlink="http://www.w3.org/1999/xlink" xml:space="preserve" xmlns:serif="http://www.serif.com/" style="fill-rule:evenodd;clip-rule:evenodd;stroke-linejoin:round;stroke-miterlimit:2;"><rect id="sx-emblem" x="0.5" y="0.48" width="250" height="250" style="fill:none;"/><clipPath id="_clip1"><rect x="0.5" y="0.48" width="250" height="250"/></clipPath><g clip-path="url(#_clip1)"><path d="M250.5,78.34c-0,-2.968 0.001,-5.936 -0.017,-8.904c-0.015,-2.501 -0.044,-5 -0.112,-7.499c-0.147,-5.447 -0.468,-10.941 -1.437,-16.327c-0.982,-5.464 -2.586,-10.549 -5.115,-15.514c-2.485,-4.879 -5.732,-9.344 -9.605,-13.215c-3.873,-3.871 -8.34,-7.116 -13.221,-9.6c-4.969,-2.529 -10.06,-4.132 -15.53,-5.114c-5.387,-0.968 -10.882,-1.288 -16.329,-1.435c-2.501,-0.068 -5.001,-0.097 -7.503,-0.112c-2.97,-0.018 -5.939,-0.017 -8.909,-0.017l-34.48,-0.123l-25.789,-0l-33.87,0.123c-2.976,0 -5.951,-0.001 -8.926,0.017c-2.507,0.015 -5.013,0.044 -7.518,0.112c-5.46,0.147 -10.967,0.468 -16.367,1.436c-5.477,0.982 -10.575,2.585 -15.552,5.112c-4.891,2.484 -9.367,5.729 -13.248,9.601c-3.881,3.871 -7.133,8.335 -9.623,13.213c-2.536,4.967 -4.143,10.056 -5.128,15.522c-0.969,5.384 -1.291,10.876 -1.439,16.321c-0.067,2.499 -0.096,4.999 -0.111,7.499c-0.018,2.968 -0.171,6.655 -0.171,9.624l0.001,33.401l-0.001,26.064l0.154,34.111c0,2.972 -0.001,5.944 0.017,8.916c0.015,2.504 0.044,5.007 0.112,7.51c0.147,5.454 0.469,10.955 1.44,16.349c0.984,5.47 2.591,10.563 5.124,15.534c2.491,4.886 5.744,9.357 9.625,13.234c3.88,3.876 8.355,7.125 13.246,9.613c4.979,2.532 10.08,4.138 15.561,5.121c5.397,0.969 10.902,1.29 16.36,1.437c2.505,0.068 5.011,0.097 7.518,0.112c2.975,0.018 5.95,0.017 8.926,0.017l34.176,0.001l25.853,-0l34.11,-0.001c2.97,-0 5.939,0.001 8.909,-0.017c2.502,-0.015 5.002,-0.044 7.503,-0.112c5.449,-0.147 10.946,-0.469 16.335,-1.438c5.467,-0.984 10.555,-2.589 15.522,-5.119c4.882,-2.488 9.349,-5.737 13.223,-9.614c3.873,-3.876 7.119,-8.346 9.605,-13.232c2.529,-4.973 4.134,-10.068 5.117,-15.543c0.967,-5.391 1.288,-10.891 1.436,-16.342c0.067,-2.503 0.096,-5.006 0.111,-7.51c0.018,-2.972 0.017,-5.944 0.017,-8.916c-0,-0 -0.002,-33.509 -0.002,-34.111l0,-26.092c0,-0.444 0.002,-34.093 0.002,-34.093Z"/><path d="M33.5,154.061c0,-5.881 5.009,-10.999 11.542,-10.999c5.99,-0 10.999,5.118 10.999,10.999c0,6.315 -5.009,11.433 -10.999,11.433c-6.533,-0 -11.542,-5.118 -11.542,-11.433" style="fill:#fff;fill-rule:nonzero;"/><path d="M62.896,152.971l10.454,-12.523c7.296,5.989 15.463,9.473 24.611,9.473c6.969,0 10.563,-2.83 10.563,-6.86c-0,-4.465 -3.485,-5.445 -14.375,-8.057c-16.008,-3.594 -27.877,-7.95 -27.877,-22.978c-0,-14.374 11.542,-23.957 28.64,-23.957c12.522,0 22.323,3.593 30.272,10.237l-9.473,13.284c-6.86,-5.227 -14.375,-7.948 -21.344,-7.948c-5.99,0 -9.366,2.83 -9.366,6.533c-0,4.574 3.594,6.098 14.702,8.494c16.769,3.593 27.55,8.385 27.55,22.432c-0,15.028 -11.433,24.392 -29.946,24.392c-13.285,0 -25.372,-4.354 -34.411,-12.522" style="fill:#fff;fill-rule:nonzero;"/><path d="M181.155,126.654l27.673,38.668l-22.407,-0l-16.58,-23.079l-16.694,23.079l-22.071,-0l27.785,-38.332l-27.785,-38.668l22.52,-0l16.469,22.967l16.692,-22.967l22.071,-0l-27.673,38.332Z" style="fill:#fff;fill-rule:nonzero;"/></g></svg>