<?xml version="1.0" encoding="UTF-8" standalone="no"?><!DOCTYPE svg PUBLIC "-//W3C//DTD SVG 1.1//EN" "http://www.w3.org/Graphics/SVG/1.1/DTD/svg11.dtd"><svg width="100%" height="100%" viewBox="0 0 250 251" version="1.1" xmlns="http://www.w3.org/2000/svg" xmlns:xlink="http://www.w3.org/1999/xlink" xml:space="preserve" xmlns:serif="http://www.serif.com/" style="fill-rule:evenodd;clip-rule:evenodd;stroke-linejoin:round;stroke-miterlimit:2;"><rect id="sx-emblem-black" x="0" y="0.73" width="250" height="250" style="fill:none;"/><path d="M53.292,1.404c2.781,-0.228 5.57,-0.348 8.347,-0.422c2.505,-0.068 5.011,-0.097 7.518,-0.112c2.975,-0.018 5.95,-0.017 8.926,-0.017l33.87,-0.123l25.789,-0l34.48,0.123c2.97,0 5.939,-0.001 8.909,0.017c2.502,0.015 5.002,0.044 7.503,0.112c5.447,0.147 10.942,0.467 16.329,1.435c5.47,0.982 10.561,2.585 15.53,5.114c4.881,2.484 9.348,5.729 13.221,9.6c3.873,3.871 7.12,8.336 9.605,13.215c2.529,4.965 4.133,10.05 5.115,15.514c0.969,5.386 1.29,10.88 1.437,16.327c0.068,2.499 0.097,4.998 0.112,7.499c0.018,2.968 0.017,5.936 0.017,8.904c-0,-0 -0.002,33.649 -0.002,34.093l0,12.047l-0.012,-0c0.002,-0 0.009,0.342 0.012,0.664l0,13.381c0,0.602 0.002,34.111 0.002,34.111c-0,2.972 0.001,5.944 -0.017,8.916c-0.015,2.504 -0.044,5.007 -0.111,7.51c-0.052,1.907 -0.125,3.821 -0.239,5.733c-3.153,29.085 -26.263,52.184 -55.351,55.321c-1.885,0.112 -3.769,0.183 -5.648,0.234c-2.501,0.068 -5.001,0.097 -7.503,0.112c-2.97,0.018 -5.939,0.017 -8.909,0.017l-34.11,0.001l-25.853,-0l-34.176,-0.001c-2.976,-0 -5.951,0.001 -8.926,-0.017c-2.507,-0.015 -5.013,-0.044 -7.518,-0.112c-5.458,-0.147 -10.963,-0.468 -16.36,-1.437c-5.481,-0.983 -10.582,-2.589 -15.561,-5.121c-4.891,-2.488 -9.366,-5.737 -13.246,-9.613c-3.881,-3.877 -7.134,-8.348 -9.625,-13.234c-2.533,-4.971 -4.14,-10.064 -5.124,-15.534c-0.971,-5.394 -1.293,-10.895 -1.44,-16.349c-0.068,-2.503 -0.097,-5.006 -0.112,-7.51c-0.018,-2.972 -0.017,-5.944 -0.017,-8.916l-0.154,-34.044l0,-8.658l0.001,-17.473l-0.001,-22.392l0,-11.108c0.003,-2.951 0.153,-6.589 0.171,-9.525c0.015,-2.5 0.044,-5 0.111,-7.499c0.077,-2.807 0.199,-5.626 0.433,-8.437c4.112,-27.019 25.52,-48.35 52.577,-52.346Zm43.514,163.655c18.514,-0 29.947,-9.364 29.947,-24.392c0,-14.047 -10.781,-18.839 -27.55,-22.433c-11.108,-2.395 -14.702,-3.919 -14.702,-8.493c0,-3.703 3.376,-6.533 9.366,-6.533c6.969,-0 14.483,2.721 21.344,7.948l9.473,-13.284c-7.949,-6.644 -17.751,-10.237 -30.272,-10.237c-17.098,-0 -28.641,9.582 -28.641,23.957c0,15.028 11.87,19.384 27.878,22.977c10.89,2.613 14.374,3.593 14.374,8.058c0,4.03 -3.593,6.86 -10.563,6.86c-9.147,-0 -17.314,-3.484 -24.61,-9.473l-10.454,12.523c9.038,8.167 21.126,12.522 34.41,12.522Zm-52.264,-0c5.99,-0 10.999,-5.118 10.999,-11.433c0,-5.881 -5.009,-10.999 -10.999,-10.999c-6.533,-0 -11.542,5.118 -11.542,10.999c0,6.315 5.009,11.433 11.542,11.433Zm163.786,-77.329l-22.071,-0l-16.692,22.967l-16.47,-22.967l-22.52,-0l27.786,38.668l-27.786,38.332l22.072,-0l16.693,-23.079l16.58,23.079l22.408,-0l-27.673,-38.668l27.673,-38.332Z" style="fill-rule:nonzero;"/></svg>